<?xml version="1.0" encoding="UTF-8"?>
<svg width="24px" height="24px" viewBox="0 0 24 24" version="1.1" xmlns="http://www.w3.org/2000/svg" xmlns:xlink="http://www.w3.org/1999/xlink">
    <title>1950Icons/Arrow-1950@1x</title>
    <g id="1950Icons/Arrow-1950" stroke="none" stroke-width="1" fill="none" fill-rule="evenodd">
        <g id="Group-4" transform="translate(2.000000, 3.000000)">
            <path d="M8.5,16 C12.25,16 16,12.6421356 16,8.5 C16,4.35786438 12.6421356,1 8.5,1 C4.35786438,1 1,4.35786438 1,8.5" id="Oval" stroke="#000000" stroke-width="2" stroke-linecap="round" transform="translate(8.500000, 8.500000) scale(-1, -1) translate(-8.500000, -8.500000) "></path>
            <path d="M16,4.97182532 L18.1169048,8.5 L13.8830952,8.5 L16,4.97182532 Z" id="Triangle" stroke="#000000" fill="#FFFFFF"></path>
            <path d="M8.5,0 C13.1944204,0 17,3.80557963 17,8.5 C17,13.0718028 12.9299346,17 8.5,17 C7.94771525,17 7.5,16.5522847 7.5,16 C7.5,15.4477153 7.94771525,15 8.5,15 C11.8409306,15 15,11.9510447 15,8.5 C15,4.91014913 12.0898509,2 8.5,2 C4.91014913,2 2,4.91014913 2,8.5 C2,9.05228475 1.55228475,9.5 1,9.5 C0.44771525,9.5 0,9.05228475 0,8.5 C0,3.80557963 3.80557963,0 8.5,0 Z" id="Oval" fill="#000000" fill-rule="nonzero" transform="translate(8.500000, 8.500000) scale(-1, -1) translate(-8.500000, -8.500000) "></path>
            <polygon id="Triangle" fill="#000000" fill-rule="nonzero" points="16 4 19 9 13 9"></polygon>
        </g>
    </g>
</svg>