<?xml version="1.0" encoding="UTF-8"?>
<svg width="24px" height="24px" viewBox="0 0 24 24" version="1.1" xmlns="http://www.w3.org/2000/svg" xmlns:xlink="http://www.w3.org/1999/xlink">
    <title>1950Icons/Arrow-1950 2@1x</title>
    <g id="1950Icons/Arrow-1950" stroke="none" stroke-width="1" fill="none" fill-rule="evenodd">
        <path d="M7.8905986,6.29289322 C8.28112289,5.90236893 8.91428787,5.90236893 9.30481216,6.29289322 C9.69533645,6.68341751 9.69533645,7.31658249 9.30481216,7.70710678 L5.012,12 L9.30481216,16.2928932 C9.66529612,16.6533772 9.69302565,17.2206082 9.38800076,17.6128994 L9.30481216,17.7071068 C8.91428787,18.0976311 8.28112289,18.0976311 7.8905986,17.7071068 L2.8905986,12.7071068 C2.5000743,12.3165825 2.5000743,11.6834175 2.8905986,11.2928932 L7.8905986,6.29289322 Z" id="Rectangle" fill="#000000" fill-rule="nonzero"></path>
        <path d="M21,11 C21.5522847,11 22,11.4477153 22,12 C22,12.5522847 21.5522847,13 21,13 L4,13 C3.44771525,13 3,12.5522847 3,12 C3,11.4477153 3.44771525,11 4,11 L21,11 Z" id="Line" fill="#000000" fill-rule="nonzero"></path>
    </g>
</svg>