<?xml version="1.0" encoding="UTF-8"?>
<svg width="24px" height="24px" viewBox="0 0 24 24" version="1.1" xmlns="http://www.w3.org/2000/svg" xmlns:xlink="http://www.w3.org/1999/xlink">
    <title>1950Icons/Binoculars-1950@1x</title>
    <g id="1950Icons/Binoculars-1950" stroke="none" stroke-width="1" fill="none" fill-rule="evenodd">
        <path d="M15.4826308,6.04827623 C15.7670496,5.9939367 16.1385796,5.98551678 16.5963957,6.0133998 L17.2101725,7.35083947 L17.8122472,7.38417405 L20.4736669,13.4990228 C20.8079414,14.0496285 21,14.6980601 21,15.3918763 C21,16.3898152 20.6020244,17.2938775 19.9567359,17.9480626 C19.3163696,18.5972579 18.4320467,19 17.4545455,19 C16.4770443,19 15.5927214,18.5972579 14.952355,17.9480626 C14.3070666,17.2938775 13.9090909,16.3898152 13.9090909,15.3918763 C13.8361175,14.9100723 13.7249869,14.784145 13.5874923,14.6571848 C12.9504131,14.068917 12.3804597,14.0431062 11.8941265,14.0481771 C11.6495245,14.0486272 11.4431754,14.0322501 11.2103754,14.0000715 L10.0666298,13.8419783 L10.0734707,14.9965781 C10.0804006,16.1662062 9.7011844,17.1716445 9.05560149,17.885856 C8.42015515,18.5888533 7.53014443,19 6.54545455,19 C5.56795334,19 4.68363044,18.5972579 4.04326405,17.9480626 C3.39797565,17.2938775 3,16.3898152 3,15.3918763 C3,14.6980601 3.19205856,14.0496285 3.52633314,13.4990228 L5.81049325,7.41424361 C6.13493376,7.38052382 6.45790844,7.36714197 6.7794369,7.37427037 L7.40370884,6.01339343 C7.86147693,5.98551806 8.23297205,5.99394084 8.5173692,6.04827623 C8.78834011,6.10004647 9.11216672,6.21940744 9.49141111,6.39800951 L9.49185588,8.16131321 L10.0376925,10.862 L13.9607064,10.862 L13.961363,8.62612106 C14.1423737,8.4624838 14.3245392,8.31473988 14.5081386,8.1831942 L14.5085889,6.39800951 C14.8878333,6.21940744 15.2116599,6.10004647 15.4826308,6.04827623 Z" id="Combined-Shape" stroke="#000000" stroke-width="2"></path>
        <ellipse id="Oval" stroke="#000000" stroke-width="2" cx="17.2272727" cy="15.1476829" rx="1" ry="1"></ellipse>
        <ellipse id="Oval" stroke="#000000" stroke-width="2" transform="translate(6.318182, 15.147683) scale(-1, 1) translate(-6.318182, -15.147683) " cx="6.31818182" cy="15.1476829" rx="1" ry="1"></ellipse>
    </g>
</svg>