<?xml version="1.0" encoding="UTF-8"?>
<svg width="24px" height="24px" viewBox="0 0 24 24" version="1.1" xmlns="http://www.w3.org/2000/svg" xmlns:xlink="http://www.w3.org/1999/xlink">
    <title>1950Icons/Boxes-1950@1x</title>
    <g id="1950Icons/Boxes-1950" stroke="none" stroke-width="1" fill="none" fill-rule="evenodd">
        <rect id="Rectangle-Copy-3" fill="#000000" x="11" y="6" width="2" height="2"></rect>
        <rect id="Rectangle-Copy-3" fill="#000000" x="15" y="14" width="2" height="2"></rect>
        <rect id="Rectangle-Copy-3" fill="#000000" x="7" y="14" width="2" height="2"></rect>
        <path d="M12,11 C12.5522847,11 13,11.4477153 13,12 L13,20 C13,20.5522847 12.5522847,21 12,21 L4,21 C3.44771525,21 3,20.5522847 3,20 L3,12 C3,11.4477153 3.44771525,11 4,11 L12,11 Z M11,13 L5,13 L5,19 L11,19 L11,13 Z" id="Rectangle" fill="#000000" fill-rule="nonzero"></path>
        <path d="M20,11 C20.5522847,11 21,11.4477153 21,12 L21,20 C21,20.5522847 20.5522847,21 20,21 L12,21 C11.4477153,21 11,20.5522847 11,20 L11,12 C11,11.4477153 11.4477153,11 12,11 L20,11 Z M19,13 L13,13 L13,19 L19,19 L19,13 Z" id="Rectangle" fill="#000000" fill-rule="nonzero"></path>
        <path d="M16,3 C16.5522847,3 17,3.44771525 17,4 L17,12 C17,12.5522847 16.5522847,13 16,13 L8,13 C7.44771525,13 7,12.5522847 7,12 L7,4 C7,3.44771525 7.44771525,3 8,3 L16,3 Z M15,5 L9,5 L9,11 L15,11 L15,5 Z" id="Rectangle" fill="#000000" fill-rule="nonzero"></path>
    </g>
</svg>