<?xml version="1.0" encoding="UTF-8"?>
<svg width="24px" height="24px" viewBox="0 0 24 24" version="1.1" xmlns="http://www.w3.org/2000/svg" xmlns:xlink="http://www.w3.org/1999/xlink">
    <title>1950Icons/Brush-1950@1x</title>
    <g id="1950Icons/Brush-1950" stroke="none" stroke-width="1" fill="none" fill-rule="evenodd">
        <g id="Group" transform="translate(2.000000, 1.885637)" stroke="#000000" stroke-width="2">
            <path d="M4.5,12.1143634 C5.46649831,12.1143634 6.34149831,12.5061143 6.97487373,13.1394897 C7.60824916,13.7728651 8,14.6478651 8,15.6143634 C8,16.5808618 7.60824916,17.4558618 6.97487373,18.0892372 C6.34149831,18.7226126 5.46649831,19.1143634 4.5,19.1143634 L1,19.1143634 L1,15.6143634 C1,14.6478651 1.39175084,13.7728651 2.02512627,13.1394897 C2.65850169,12.5061143 3.53350169,12.1143634 4.5,12.1143634 Z" id="Rectangle"></path>
            <path d="M10.5735764,1.29521139 C11.1258612,1.29521139 11.6258612,1.51906902 11.98779,1.88099783 C12.3497188,2.24292664 12.5735764,2.74292664 12.5735764,3.29521139 L12.5735764,14.2952114 L8.57357644,14.2952114 L8.57357644,3.29521139 C8.57357644,2.74292664 8.79743406,2.24292664 9.15936287,1.88099783 C9.52129169,1.51906902 10.0212917,1.29521139 10.5735764,1.29521139 Z" id="Rectangle" transform="translate(10.573576, 7.795211) rotate(37.000000) translate(-10.573576, -7.795211) "></path>
        </g>
    </g>
</svg>