<?xml version="1.0" encoding="UTF-8"?>
<svg width="24px" height="24px" viewBox="0 0 24 24" version="1.1" xmlns="http://www.w3.org/2000/svg" xmlns:xlink="http://www.w3.org/1999/xlink">
    <title>1950Icons/Cancel-1950@1x</title>
    <g id="1950Icons/Cancel-1950" stroke="none" stroke-width="1" fill="none" fill-rule="evenodd">
        <path d="M20,2 C21.1045695,2 22,2.8954305 22,4 L22,20 C22,21.1045695 21.1045695,22 20,22 L4,22 C2.8954305,22 2,21.1045695 2,20 L2,4 C2,2.8954305 2.8954305,2 4,2 L20,2 Z M20,4 L4,4 L4,20 L20,20 L20,4 Z" id="Rectangle" fill="#000000" fill-rule="nonzero"></path>
        <path d="M6.9,11.7 C7.3418278,11.3686292 7.96862915,11.4581722 8.3,11.9 L11.3,15.9 C11.6313708,16.3418278 11.5418278,16.9686292 11.1,17.3 C10.6581722,17.6313708 10.0313708,17.5418278 9.7,17.1 L6.7,13.1 C6.36862915,12.6581722 6.4581722,12.0313708 6.9,11.7 Z" id="Line" fill="#000000" fill-rule="nonzero"></path>
        <path d="M9.84149539,7.74742331 C10.257132,7.38374125 10.8888946,7.42585876 11.2525767,7.84149539 L18.2525767,15.8414954 C18.6162587,16.257132 18.5741412,16.8888946 18.1585046,17.2525767 C17.742868,17.6162587 17.1111054,17.5741412 16.7474233,17.1585046 L9.74742331,9.15850461 C9.38374125,8.74286798 9.42585876,8.11110536 9.84149539,7.74742331 Z" id="Line" fill="#000000" fill-rule="nonzero" transform="translate(14.000000, 12.500000) scale(-1, 1) translate(-14.000000, -12.500000) "></path>
    </g>
</svg>