<?xml version="1.0" encoding="UTF-8"?>
<svg width="24px" height="24px" viewBox="0 0 24 24" version="1.1" xmlns="http://www.w3.org/2000/svg" xmlns:xlink="http://www.w3.org/1999/xlink">
    <title>1950Icons/Cancel-1950 2@1x</title>
    <g id="1950Icons/Cancel-1950" stroke="none" stroke-width="1" fill="none" fill-rule="evenodd">
        <path d="M20,2 C21.1045695,2 22,2.8954305 22,4 L22,20 C22,21.1045695 21.1045695,22 20,22 L4,22 C2.8954305,22 2,21.1045695 2,20 L2,4 C2,2.8954305 2.8954305,2 4,2 L20,2 Z M20,4 L4,4 L4,20 L20,20 L20,4 Z" id="Rectangle" fill="#000000" fill-rule="nonzero"></path>
        <path d="M6.83103527,6.75670585 C7.24154529,6.38724683 7.87383513,6.42052525 8.24329415,6.83103527 L17.2432941,16.8310353 C17.6127532,17.2415453 17.5794748,17.8738351 17.1689647,18.2432941 C16.7584547,18.6127532 16.1261649,18.5794748 15.7567059,18.1689647 L6.75670585,8.16896473 C6.38724683,7.75845471 6.42052525,7.12616487 6.83103527,6.75670585 Z" id="Line" fill="#000000" fill-rule="nonzero"></path>
        <path d="M6.83103527,6.75670585 C7.24154529,6.38724683 7.87383513,6.42052525 8.24329415,6.83103527 L17.2432941,16.8310353 C17.6127532,17.2415453 17.5794748,17.8738351 17.1689647,18.2432941 C16.7584547,18.6127532 16.1261649,18.5794748 15.7567059,18.1689647 L6.75670585,8.16896473 C6.38724683,7.75845471 6.42052525,7.12616487 6.83103527,6.75670585 Z" id="Line" fill="#000000" fill-rule="nonzero" transform="translate(12.000000, 12.500000) scale(-1, 1) translate(-12.000000, -12.500000) "></path>
    </g>
</svg>