<?xml version="1.0" encoding="UTF-8"?>
<svg width="24px" height="24px" viewBox="0 0 24 24" version="1.1" xmlns="http://www.w3.org/2000/svg" xmlns:xlink="http://www.w3.org/1999/xlink">
    <title>1950Icons/Change-1950@1x</title>
    <g id="1950Icons/Change-1950" stroke="none" stroke-width="1" fill="none" fill-rule="evenodd">
        <path d="M19.5,6.5 C20.0522847,6.5 20.5,6.94771525 20.5,7.5 C20.5,8.05228475 20.0522847,8.5 19.5,8.5 L4.5,8.5 C3.94771525,8.5 3.5,8.05228475 3.5,7.5 C3.5,6.94771525 3.94771525,6.5 4.5,6.5 L19.5,6.5 Z" id="Line-14" fill="#000000" fill-rule="nonzero"></path>
        <path d="M14.7928932,2.79289322 C15.1834175,2.40236893 15.8165825,2.40236893 16.2071068,2.79289322 L20.2071068,6.79289322 C20.5976311,7.18341751 20.5976311,7.81658249 20.2071068,8.20710678 C19.8165825,8.59763107 19.1834175,8.59763107 18.7928932,8.20710678 L14.7928932,4.20710678 C14.4023689,3.81658249 14.4023689,3.18341751 14.7928932,2.79289322 Z" id="Line" fill="#000000" fill-rule="nonzero"></path>
        <path d="M14.7928932,6.79289322 C15.1834175,6.40236893 15.8165825,6.40236893 16.2071068,6.79289322 L20.2071068,10.7928932 C20.5976311,11.1834175 20.5976311,11.8165825 20.2071068,12.2071068 C19.8165825,12.5976311 19.1834175,12.5976311 18.7928932,12.2071068 L14.7928932,8.20710678 C14.4023689,7.81658249 14.4023689,7.18341751 14.7928932,6.79289322 Z" id="Line" fill="#000000" fill-rule="nonzero" transform="translate(17.500000, 9.500000) scale(1, -1) translate(-17.500000, -9.500000) "></path>
        <path d="M19.5,15.5 C20.0522847,15.5 20.5,15.9477153 20.5,16.5 C20.5,17.0522847 20.0522847,17.5 19.5,17.5 L4.5,17.5 C3.94771525,17.5 3.5,17.0522847 3.5,16.5 C3.5,15.9477153 3.94771525,15.5 4.5,15.5 L19.5,15.5 Z" id="Line-14" fill="#000000" fill-rule="nonzero" transform="translate(12.000000, 16.500000) scale(-1, 1) translate(-12.000000, -16.500000) "></path>
        <path d="M3.79289322,11.7928932 C4.18341751,11.4023689 4.81658249,11.4023689 5.20710678,11.7928932 L9.20710678,15.7928932 C9.59763107,16.1834175 9.59763107,16.8165825 9.20710678,17.2071068 C8.81658249,17.5976311 8.18341751,17.5976311 7.79289322,17.2071068 L3.79289322,13.2071068 C3.40236893,12.8165825 3.40236893,12.1834175 3.79289322,11.7928932 Z" id="Line" fill="#000000" fill-rule="nonzero" transform="translate(6.500000, 14.500000) scale(-1, 1) translate(-6.500000, -14.500000) "></path>
        <path d="M3.79289322,15.7928932 C4.18341751,15.4023689 4.81658249,15.4023689 5.20710678,15.7928932 L9.20710678,19.7928932 C9.59763107,20.1834175 9.59763107,20.8165825 9.20710678,21.2071068 C8.81658249,21.5976311 8.18341751,21.5976311 7.79289322,21.2071068 L3.79289322,17.2071068 C3.40236893,16.8165825 3.40236893,16.1834175 3.79289322,15.7928932 Z" id="Line" fill="#000000" fill-rule="nonzero" transform="translate(6.500000, 18.500000) scale(-1, -1) translate(-6.500000, -18.500000) "></path>
    </g>
</svg>