<?xml version="1.0" encoding="UTF-8"?>
<svg width="24px" height="24px" viewBox="0 0 24 24" version="1.1" xmlns="http://www.w3.org/2000/svg" xmlns:xlink="http://www.w3.org/1999/xlink">
    <title>1950Icons/ChatPhone-1950@1x</title>
    <g id="1950Icons/ChatPhone-1950" stroke="none" stroke-width="1" fill="none" fill-rule="evenodd">
        <path d="M17,2 C18.6568542,2 20,3.34314575 20,5 L20,19 C20,20.6568542 18.6568542,22 17,22 L8,22 C6.34314575,22 5,20.6568542 5,19 L5,5 C5,3.34314575 6.34314575,2 8,2 L17,2 Z M17,4 L8,4 C7.44771525,4 7,4.44771525 7,5 L7,19 C7,19.5522847 7.44771525,20 8,20 L17,20 C17.5522847,20 18,19.5522847 18,19 L18,5 C18,4.44771525 17.5522847,4 17,4 Z" id="Rectangle" fill="#000000" fill-rule="nonzero"></path>
        <path d="M14.5,6 C15.8807119,6 17,7.11928813 17,8.5 L17,12.5 C17,12.7761424 16.7761424,13 16.5,13 L10.5,13 C9.11928813,13 8,11.8807119 8,10.5 L8,8.5 C8,7.11928813 9.11928813,6 10.5,6 L14.5,6 Z M14.5898756,8.00805567 L14.5,8 L10.5,8 C10.2238576,8 10,8.22385763 10,8.5 L10,10.5 C10,10.7761424 10.2238576,11 10.5,11 L15,11 L15,8.5 C15,8.2852226 14.86458,8.10207424 14.6744662,8.03128126 L14.5898756,8.00805567 Z" id="Rectangle" fill="#000000" fill-rule="nonzero"></path>
        <circle id="Oval" fill="#000000" cx="12.5" cy="17.5" r="1.5"></circle>
    </g>
</svg>