<?xml version="1.0" encoding="UTF-8"?>
<svg width="24px" height="24px" viewBox="0 0 24 24" version="1.1" xmlns="http://www.w3.org/2000/svg" xmlns:xlink="http://www.w3.org/1999/xlink">
    <title>1950Icons/Chat-1950@1x</title>
    <g id="1950Icons/Chat-1950" stroke="none" stroke-width="1" fill="none" fill-rule="evenodd">
        <g id="Group-2" transform="translate(2.000000, 3.000000)" fill="#000000">
            <path d="M10,0 C15.5228475,0 20,4.02943725 20,9 C20,13.9705627 15.5228475,18 10,18 C8.23043291,18 6.56821852,17.5863316 5.12622997,16.8605806 L2.39165166,18.1550276 C2.19927028,18.2461144 1.9828431,18.2734389 1.77385949,18.2330253 C1.23162057,18.1281664 0.877054048,17.6035899 0.981912998,17.061351 L1.59719695,13.8813554 C0.586652216,12.4752107 0,10.7992643 0,9 C0,4.02943725 4.4771525,0 10,0 Z M10,2 C5.53748555,2 2,5.183737 2,9 C2,10.3305197 2.42469913,11.6057361 3.22129434,12.714176 C3.54254238,13.1611837 3.66534815,13.720835 3.56077958,14.2612807 L3.32,15.502 L4.27053218,15.05288 C4.77181121,14.8155933 5.34634767,14.7982028 5.8575142,14.9990573 L6.02536858,15.0740897 C7.22369228,15.6772045 8.58213867,16 10,16 C14.4625144,16 18,12.816263 18,9 C18,5.183737 14.4625144,2 10,2 Z" id="Combined-Shape" fill-rule="nonzero"></path>
            <g id="Group" transform="translate(5.000000, 8.000000)">
                <circle id="Oval" cx="1" cy="1" r="1"></circle>
                <circle id="Oval" cx="5" cy="1" r="1"></circle>
                <circle id="Oval" cx="9" cy="1" r="1"></circle>
            </g>
        </g>
    </g>
</svg>