<?xml version="1.0" encoding="UTF-8"?>
<svg width="24px" height="24px" viewBox="0 0 24 24" version="1.1" xmlns="http://www.w3.org/2000/svg" xmlns:xlink="http://www.w3.org/1999/xlink">
    <title>1950Icons/Clip-1950@1x</title>
    <g id="1950Icons/Clip-1950" stroke="none" stroke-width="1" fill="none" fill-rule="evenodd">
        <path d="M3.95924465,20.0263158 C1.44556044,17.4968421 1.34240255,13.4863158 3.72871834,11.0852632 L11.5034552,3.26421053 C12.3129289,2.44947368 13.4055604,2 14.5792447,2 C15.8350341,2 17.0287183,2.50421053 17.9392447,3.42 C19.7508236,5.24210526 19.8202973,8.13789474 18.0929289,9.87473684 L10.3087183,17.6947368 C9.80450781,18.2031579 9.12556044,18.4821053 8.39713939,18.4821053 C7.62766571,18.4821053 6.89819202,18.1747368 6.34450781,17.6178947 C5.23608676,16.5010526 5.20134992,14.7210526 6.26766571,13.6473684 L13.4518762,6.43157895 C13.8624025,6.01894737 14.5276657,6.01684211 14.9402973,6.42736842 C15.3518762,6.83789474 15.3539815,7.50421053 14.9434552,7.91578947 L7.76029729,15.1326316 C7.50766571,15.3873684 7.54240255,15.8368421 7.83819202,16.1336842 C7.99187623,16.2884211 8.19608676,16.3768421 8.39713939,16.3768421 C8.51292887,16.3768421 8.67924465,16.3484211 8.81608676,16.2105263 L16.6002973,8.39052632 C17.5129289,7.47157895 17.4445078,5.90842105 16.4466131,4.90421053 C15.4918762,3.94421053 13.8718762,3.86842105 12.9960868,4.74842105 L5.22134992,12.5694737 C3.64871834,14.1515789 3.75187623,16.8315789 5.45292887,18.5421053 C6.31924465,19.4147368 7.44556044,19.8947368 8.62450781,19.8947368 C9.67819202,19.8947368 10.6550341,19.4968421 11.3729289,18.7747368 L19.1487183,10.9536842 C19.558192,10.5421053 20.2245078,10.5389474 20.6371394,10.9494737 C21.0487183,11.36 21.0508236,12.0252632 20.6413499,12.4378947 L12.8655604,20.2589474 C11.749771,21.3810526 10.2434552,22 8.62450781,22 C6.88134992,22 5.22450781,21.2989474 3.95924465,20.0263158 Z" id="icon" fill="#0D1C2E" fill-rule="nonzero"></path>
    </g>
</svg>