<?xml version="1.0" encoding="UTF-8"?>
<svg width="24px" height="24px" viewBox="0 0 24 24" version="1.1" xmlns="http://www.w3.org/2000/svg" xmlns:xlink="http://www.w3.org/1999/xlink">
    <title>1950Icons/Close-1950 2@1x</title>
    <g id="1950Icons/Close-1950" stroke="none" stroke-width="1" fill="none" fill-rule="evenodd">
        <path d="M12,2 C17.5228475,2 22,6.4771525 22,12 C22,17.5228475 17.5228475,22 12,22 C6.4771525,22 2,17.5228475 2,12 C2,6.4771525 6.4771525,2 12,2 Z M12,4 C7.581722,4 4,7.581722 4,12 C4,16.418278 7.581722,20 12,20 C16.418278,20 20,16.418278 20,12 C20,7.581722 16.418278,4 12,4 Z" id="Oval" fill="#000000" fill-rule="nonzero"></path>
        <path d="M7.84149539,7.74742331 C8.25713202,7.38374125 8.88889464,7.42585876 9.25257669,7.84149539 L16.2525767,15.8414954 C16.6162587,16.257132 16.5741412,16.8888946 16.1585046,17.2525767 C15.742868,17.6162587 15.1111054,17.5741412 14.7474233,17.1585046 L7.74742331,9.15850461 C7.38374125,8.74286798 7.42585876,8.11110536 7.84149539,7.74742331 Z" id="Line" fill="#000000" fill-rule="nonzero"></path>
        <path d="M7.84149539,7.74742331 C8.25713202,7.38374125 8.88889464,7.42585876 9.25257669,7.84149539 L16.2525767,15.8414954 C16.6162587,16.257132 16.5741412,16.8888946 16.1585046,17.2525767 C15.742868,17.6162587 15.1111054,17.5741412 14.7474233,17.1585046 L7.74742331,9.15850461 C7.38374125,8.74286798 7.42585876,8.11110536 7.84149539,7.74742331 Z" id="Line" fill="#000000" fill-rule="nonzero" transform="translate(12.000000, 12.500000) scale(-1, 1) translate(-12.000000, -12.500000) "></path>
    </g>
</svg>