<?xml version="1.0" encoding="UTF-8"?>
<svg width="24px" height="24px" viewBox="0 0 24 24" version="1.1" xmlns="http://www.w3.org/2000/svg" xmlns:xlink="http://www.w3.org/1999/xlink">
    <title>1950Icons/Coffee-1950@1x</title>
    <g id="1950Icons/Coffee-1950" stroke="none" stroke-width="1" fill="none" fill-rule="evenodd">
        <path d="M16,10 C16.5522847,10 17,10.4477153 17,11 L17,19.5874429 C17,20.8004156 16.3292592,21.6719586 15.1591065,21.9692158 L15.0379247,22 L7.26839063,22 C5.68902732,22 4.88970994,20.8504023 5.01106016,19.1916767 L5.01106016,11 C5.01106016,10.4477153 5.45877541,10 6.01106016,10 C6.56334491,10 7.01106016,10.4477153 7.01106016,11 L7.00850565,19.2631085 L6.99339108,19.5183344 C6.97556653,19.958893 7.03717858,20 7.26839063,20 L14.768,20 L14.8213946,19.981042 C14.9464867,19.9263069 14.9883555,19.8489271 14.9977651,19.6799083 L15,19.5874429 L15,11 C15,10.4477153 15.4477153,10 16,10 Z" id="Path" fill="#000000" fill-rule="nonzero"></path>
        <path d="M18.9830137,10.0007886 C20.8465264,9.96912982 21.9982199,10.9608224 21.9982199,12.7212582 L21.9976044,16.2144521 C22.0598696,17.9882266 20.904894,19 18.999997,19 C18.4477153,19 17.999997,18.5522847 17.999997,18 C17.999997,17.4477153 18.4477153,17 18.999997,17 C19.7887455,17 19.9937589,16.8635901 19.9995946,16.3560579 L19.9982199,12.7212582 C19.9982199,12.1422791 19.8177669,11.9868958 19.0169863,12.0005001 C18.4647813,12.0098814 18.0095256,11.5698357 18.0001443,11.0176307 C17.990763,10.4654256 18.4308086,10.0101699 18.9830137,10.0007886 Z" id="Path-2" fill="#000000" fill-rule="nonzero"></path>
        <path d="M5.90196984,2.42348843 C6.22036839,1.97222264 6.84430462,1.86451247 7.2955704,2.18291102 C7.74683619,2.50130957 7.85454636,3.12524579 7.53614781,3.57651157 C6.88221384,4.5033312 6.88221384,5.81538197 7.64032072,7.61105718 C7.85512791,8.11985607 7.61680054,8.70645471 7.10800165,8.9212619 C6.59920275,9.13606909 6.01260412,8.89774172 5.79779693,8.38894282 C4.79499747,6.01368126 4.79499747,3.9923987 5.90196984,2.42348843 Z" id="Path-3" fill="#000000" fill-rule="nonzero"></path>
        <path d="M10.013081,2.42348843 C10.3314795,1.97222264 10.9554157,1.86451247 11.4066815,2.18291102 C11.8579473,2.50130957 11.9656575,3.12524579 11.6472589,3.57651157 C10.993325,4.5033312 10.993325,5.81538197 11.7514318,7.61105718 C11.966239,8.11985607 11.7279117,8.70645471 11.2191128,8.9212619 C10.7103139,9.13606909 10.1237152,8.89774172 9.90890804,8.38894282 C8.90610858,6.01368126 8.90610858,3.9923987 10.013081,2.42348843 Z" id="Path-3" fill="#000000" fill-rule="nonzero"></path>
        <path d="M14.1241921,2.42348843 C14.4425906,1.97222264 15.0665268,1.86451247 15.5177926,2.18291102 C15.9690584,2.50130957 16.0767686,3.12524579 15.75837,3.57651157 C15.1044361,4.5033312 15.1044361,5.81538197 15.8625429,7.61105718 C16.0773501,8.11985607 15.8390228,8.70645471 15.3302239,8.9212619 C14.821425,9.13606909 14.2348263,8.89774172 14.0200192,8.38894282 C13.0172197,6.01368126 13.0172197,3.9923987 14.1241921,2.42348843 Z" id="Path-3" fill="#000000" fill-rule="nonzero"></path>
    </g>
</svg>