<?xml version="1.0" encoding="UTF-8"?>
<svg width="24px" height="24px" viewBox="0 0 24 24" version="1.1" xmlns="http://www.w3.org/2000/svg" xmlns:xlink="http://www.w3.org/1999/xlink">
    <title>1950Icons/Config-1950@1x</title>
    <g id="1950Icons/Config-1950" stroke="none" stroke-width="1" fill="none" fill-rule="evenodd">
        <path d="M13.5,2 L14.3861679,4.3619113 C14.7773053,4.48397609 15.1555478,4.63525702 15.5183412,4.81319973 L18.3535534,3.52512627 L20.4748737,5.64644661 L19.1868003,8.48165885 C19.3648938,8.84475974 19.5162804,9.223336 19.638399,9.61482674 L22,10.5 L22,13.5 L19.6380887,14.3861679 C19.5160239,14.7773053 19.364743,15.1555478 19.1868003,15.5183412 L20.4748737,18.3535534 L18.3535534,20.4748737 L15.5183412,19.1868003 C15.1555478,19.364743 14.7773053,19.5160239 14.3861679,19.6380887 L13.5,22 L10.5,22 L9.61383207,19.6380887 C9.22269475,19.5160239 8.84445222,19.364743 8.48165885,19.1868003 L5.64644661,20.4748737 L3.52512627,18.3535534 L4.81319973,15.5183412 C4.63525702,15.1555478 4.48397609,14.7773053 4.3619113,14.3861679 L2,13.5 L2,10.5 L4.36160096,9.61482674 C4.48371964,9.223336 4.63510619,8.84475974 4.81319973,8.48165885 L3.52512627,5.64644661 L5.64644661,3.52512627 L8.48165885,4.81319973 C8.84475974,4.63510619 9.223336,4.48371964 9.61482674,4.36160096 L10.5,2 L13.5,2 Z M12.114,4 L11.885,4 L11.1442566,5.97956565 L10.2103895,6.27086913 C9.91915772,6.3617138 9.63578816,6.47474065 9.36238357,6.60884 L8.51435668,7.0247798 L6.08,5.919 L5.919,6.08 L7.0247798,8.51435668 L6.60884,9.36238357 C6.47474065,9.63578816 6.3617138,9.91915772 6.27086913,10.2103895 L5.97956565,11.1442566 L3.999,11.886 L3.999,12.114 L5.979844,12.8570667 L6.27110126,13.7903545 C6.36190637,14.0813251 6.47485495,14.3644449 6.60884,14.6376164 L7.0247798,15.4856433 L5.919,17.919 L6.08,18.08 L8.51435668,16.9752202 L9.36238357,17.39116 C9.63555512,17.525145 9.91867491,17.6380936 10.2096455,17.7288987 L11.1429333,18.020156 L11.885,20 L12.114,20 L12.8570667,18.020156 L13.7903545,17.7288987 C14.0813251,17.6380936 14.3644449,17.525145 14.6376164,17.39116 L15.4856433,16.9752202 L17.919,18.08 L18.08,17.919 L16.9752202,15.4856433 L17.39116,14.6376164 C17.525145,14.3644449 17.6380936,14.0813251 17.7288987,13.7903545 L18.020156,12.8570667 L19.999,12.114 L19.999,11.885 L18.0204343,11.1442566 L17.7291309,10.2103895 C17.6382862,9.91915772 17.5252593,9.63578816 17.39116,9.36238357 L16.9752202,8.51435668 L18.08,6.08 L17.919,5.919 L15.4856433,7.0247798 L14.6376164,6.60884 C14.3644449,6.47485495 14.0813251,6.36190637 13.7903545,6.27110126 L12.8570667,5.979844 L12.114,4 Z" id="Combined-Shape" fill="#000000" fill-rule="nonzero"></path>
        <circle id="Oval" stroke="#000000" stroke-width="2" cx="12" cy="12" r="2"></circle>
    </g>
</svg>