<?xml version="1.0" encoding="UTF-8"?>
<svg width="24px" height="24px" viewBox="0 0 24 24" version="1.1" xmlns="http://www.w3.org/2000/svg" xmlns:xlink="http://www.w3.org/1999/xlink">
    <title>1950Icons/Dashboard-1950@1x</title>
    <g id="1950Icons/Dashboard-1950" stroke="none" stroke-width="1" fill="none" fill-rule="evenodd">
        <path d="M13.0074797,7.99989471 L13.1240347,8.00772212 C13.6720547,8.07622462 14.0607804,8.5760148 13.9922779,9.12403473 L12.9922779,17.1240347 C12.9237754,17.6720547 12.4239852,18.0607804 11.8759653,17.9922779 C11.3279453,17.9237754 10.9392196,17.4239852 11.0077221,16.8759653 L12.0077221,8.87596527 C12.0713316,8.36708961 12.5068166,7.9955646 13.0074797,7.99989471 Z" id="Line" fill="#000000" fill-rule="nonzero"></path>
        <circle id="Oval" fill="#000000" cx="6" cy="12" r="1"></circle>
        <circle id="Oval-Copy-2" fill="#000000" cx="8" cy="8" r="1"></circle>
        <circle id="Oval-Copy" fill="#000000" cx="18" cy="12" r="1"></circle>
        <circle id="Oval-Copy-3" fill="#000000" cx="16" cy="8" r="1"></circle>
        <circle id="Oval-Copy-4" fill="#000000" cx="12" cy="6" r="1"></circle>
        <path d="M16,18 C16,15.790861 14.209139,14 12,14 C9.790861,14 8,15.790861 8,18 L16,18 Z" id="Oval" fill="#000000"></path>
        <path d="M4.92893219,4.92893219 C1.02368927,8.83417511 1.02368927,15.1658249 4.92893219,19.0710678 C5.11646857,19.2586042 5.37082248,19.363961 5.63603897,19.363961 L18.363961,19.363961 C18.6291775,19.363961 18.8835314,19.2586042 19.0710678,19.0710678 C22.9763107,15.1658249 22.9763107,8.83417511 19.0710678,4.92893219 C15.2368293,1.09469369 9.0636148,1.02498026 5.14432262,4.71979191 L4.92893219,4.92893219 Z M17.6568542,6.34314575 L17.852028,6.54516122 C20.6523471,9.54562228 20.7145764,14.1749214 18.0387159,17.2477753 L17.934,17.363 L6.065,17.363 L5.96128406,17.2477753 C3.22460863,14.1050838 3.35189586,9.33439564 6.34314575,6.34314575 C9.46734008,3.21895142 14.5326599,3.21895142 17.6568542,6.34314575 Z" id="Oval" fill="#000000" fill-rule="nonzero"></path>
    </g>
</svg>