<?xml version="1.0" encoding="UTF-8"?>
<svg width="24px" height="24px" viewBox="0 0 24 24" version="1.1" xmlns="http://www.w3.org/2000/svg" xmlns:xlink="http://www.w3.org/1999/xlink">
    <title>1950Icons/DoubleArrow-1950/B@1x</title>
    <g id="1950Icons/DoubleArrow-1950/B" stroke="none" stroke-width="1" fill="none" fill-rule="evenodd">
        <path d="M14.4008796,9.20496207 L12.4001703,6.53419194 C12.2346103,6.31318401 11.9212351,6.26823455 11.7002272,6.43379453 C11.662156,6.46231417 11.6283494,6.49612074 11.5998297,6.53419194 L9.59912044,9.20496207 C9.43356047,9.42597 9.47850992,9.73934521 9.69951786,9.90490518 C9.78602505,9.96970887 9.89120271,10.0047349 9.9992907,10.0047349 L14.0007093,10.0047349 C14.2768517,10.0047349 14.5007093,9.78087729 14.5007093,9.50473492 C14.5007093,9.39664693 14.4656833,9.29146927 14.4008796,9.20496207 Z" id="Path-12" fill="#000000"></path>
        <path d="M14.4008796,17.2049621 L12.4001703,14.5341919 C12.2346103,14.313184 11.9212351,14.2682346 11.7002272,14.4337945 C11.662156,14.4623142 11.6283494,14.4961207 11.5998297,14.5341919 L9.59912044,17.2049621 C9.43356047,17.42597 9.47850992,17.7393452 9.69951786,17.9049052 C9.78602505,17.9697089 9.89120271,18.0047349 9.9992907,18.0047349 L14.0007093,18.0047349 C14.2768517,18.0047349 14.5007093,17.7808773 14.5007093,17.5047349 C14.5007093,17.3966469 14.4656833,17.2914693 14.4008796,17.2049621 Z" id="Path-12-Copy" fill="#000000" opacity="0.5" transform="translate(12.000000, 16.002367) scale(1, -1) translate(-12.000000, -16.002367) "></path>
    </g>
</svg>