<?xml version="1.0" encoding="UTF-8"?>
<svg width="24px" height="24px" viewBox="0 0 24 24" version="1.1" xmlns="http://www.w3.org/2000/svg" xmlns:xlink="http://www.w3.org/1999/xlink">
    <title>1950Icons/Edit2-1950@1x</title>
    <g id="1950Icons/Edit2-1950" stroke="none" stroke-width="1" fill="none" fill-rule="evenodd">
        <path d="M10,19 L10,8.82700528 C10,8.65931584 10.0421694,8.49431882 10.1226289,8.34719294 L11.6226289,5.6043358 C11.8876219,5.1197771 12.4952536,4.94178396 12.9798123,5.206777 C13.147625,5.29854954 13.2855986,5.43652315 13.3773711,5.6043358 L14.8773711,8.34719294 C14.9578306,8.49431882 15,8.65931584 15,8.82700528 L15,19 C15,19.5522847 14.5522847,20 14,20 L11,20 C10.4477153,20 10,19.5522847 10,19 Z" id="Path-2" stroke="#000000" stroke-width="2" transform="translate(12.500000, 12.000000) rotate(-145.000000) translate(-12.500000, -12.000000) "></path>
        <line x1="12" y1="8.5" x2="17" y2="8.5" id="Path-3" stroke="#000000" stroke-width="2" transform="translate(14.500000, 8.500000) rotate(-145.000000) translate(-14.500000, -8.500000) "></line>
        <path d="M21,20 C21.5522847,20 22,20.4477153 22,21 C22,21.5522847 21.5522847,22 21,22 L3,22 C2.44771525,22 2,21.5522847 2,21 C2,20.4477153 2.44771525,20 3,20 L21,20 Z" id="Line-19" fill="#000000" fill-rule="nonzero"></path>
        <path d="M12,11 C12.5522847,11 13,11.4477153 13,12 C13,12.5522847 12.5522847,13 12,13 L-6,13 C-6.55228475,13 -7,12.5522847 -7,12 C-7,11.4477153 -6.55228475,11 -6,11 L12,11 Z" id="Line-19" fill="#000000" fill-rule="nonzero" transform="translate(3.000000, 12.000000) rotate(90.000000) translate(-3.000000, -12.000000) "></path>
        <path d="M25,16 C25.5522847,16 26,16.4477153 26,17 C26,17.5522847 25.5522847,18 25,18 L17,18 C16.4477153,18 16,17.5522847 16,17 C16,16.4477153 16.4477153,16 17,16 L25,16 Z" id="Line-19" fill="#000000" fill-rule="nonzero" transform="translate(21.000000, 17.000000) rotate(90.000000) translate(-21.000000, -17.000000) "></path>
        <path d="M11,2 C11.5522847,2 12,2.44771525 12,3 C12,3.55228475 11.5522847,4 11,4 L3,4 C2.44771525,4 2,3.55228475 2,3 C2,2.44771525 2.44771525,2 3,2 L11,2 Z" id="Line-19" fill="#000000" fill-rule="nonzero"></path>
    </g>
</svg>