<?xml version="1.0" encoding="UTF-8"?>
<svg width="24px" height="24px" viewBox="0 0 24 24" version="1.1" xmlns="http://www.w3.org/2000/svg" xmlns:xlink="http://www.w3.org/1999/xlink">
    <title>1950Icons/Edit-1950@1x</title>
    <g id="1950Icons/Edit-1950" stroke="none" stroke-width="1" fill="none" fill-rule="evenodd">
        <g id="Group" transform="translate(5.000000, 2.894847)" stroke="#000000" stroke-width="2">
            <path d="M4.48000871,16.3604732 L4.48000871,5.22482112 C4.48000871,5.0551023 4.52320444,4.88817581 4.60552843,4.73976006 L6.35552843,1.58481602 C6.62342026,1.10185389 7.23210765,0.927504968 7.71506977,1.19539679 C7.87876577,1.2861965 8.01368929,1.42112002 8.104489,1.58481602 L9.854489,4.73976006 C9.93681299,4.88817581 9.98000871,5.0551023 9.98000871,5.22482112 L9.98000871,16.3604732 C9.98000871,16.9127579 9.53229346,17.3604732 8.98000871,17.3604732 L5.48000871,17.3604732 C4.92772396,17.3604732 4.48000871,16.9127579 4.48000871,16.3604732 Z M4.48000871,14.0552937 L9.98000871,14.0552937" id="Combined-Shape" transform="translate(7.230009, 8.684377) rotate(-145.000000) translate(-7.230009, -8.684377) "></path>
            <line x1="0.5" y1="17.6051533" x2="11.5" y2="17.6051533" id="Line" stroke-linecap="round"></line>
        </g>
    </g>
</svg>