<?xml version="1.0" encoding="UTF-8"?>
<svg width="24px" height="24px" viewBox="0 0 24 24" version="1.1" xmlns="http://www.w3.org/2000/svg" xmlns:xlink="http://www.w3.org/1999/xlink">
    <title>1950Icons/EmptyInbox-1950@1x</title>
    <g id="1950Icons/EmptyInbox-1950" stroke="none" stroke-width="1" fill="none" fill-rule="evenodd">
        <path d="M15.7407769,5 C16.9061258,5 18.0134855,5.50841746 18.7733754,6.3919363 L19.4277546,7.16345991 C21.1425849,9.21398022 22,10.4928269 22,11 L22,15 L20,15 L20,11.27 L19.9684148,11.2113331 L19.8363186,10.9902292 C19.7848252,10.9083088 19.7259184,10.8183475 19.6597422,10.7208804 L19.5550437,10.5691172 L19.2853377,10.1952322 C18.7977311,9.53652511 18.1199744,8.70057093 17.257059,7.69607764 C16.8770366,7.25422812 16.3232818,6.99999999 15.7405915,6.99999999 L8.25940845,6.99999999 C7.67671822,6.99999999 7.1229634,7.25422812 6.74370292,7.69519121 L6.24789166,8.27796628 C5.45879847,9.21520859 4.85630322,9.98165721 4.44495629,10.5691172 L4.24646356,10.8613848 C4.15815738,10.9961261 4.08636939,11.1133774 4.03158518,11.2113331 L4,11.269 L4,15 L2,15 L2,11 C2,10.4319661 3.07554153,8.89594491 5.22662459,6.3919363 C5.98651445,5.50841746 7.09387417,5 8.25922309,5 L15.7407769,5 Z" id="Combined-Shape" fill="#000000" fill-rule="nonzero"></path>
        <path d="M8,14 L8,17 L16,17 L16,14 L21,14 L21,21 L3,21 L3,14 L8,14 Z" id="Path" stroke="#000000" stroke-width="2"></path>
    </g>
</svg>