<?xml version="1.0" encoding="UTF-8"?>
<svg width="24px" height="24px" viewBox="0 0 24 24" version="1.1" xmlns="http://www.w3.org/2000/svg" xmlns:xlink="http://www.w3.org/1999/xlink">
    <title>1950Icons/Fav-1950@1x</title>
    <g id="1950Icons/Fav-1950" stroke="none" stroke-width="1" fill="none" fill-rule="evenodd">
        <path d="M15.5735294,3 C17.0489443,3 18.3824349,3.56873326 19.3485458,4.48117138 C20.335938,5.41370844 20.9411765,6.70354274 20.9411765,8.125 C20.9411765,11.5761406 18.285439,15.5043934 12.6030799,19.7978587 C12.4005349,19.9508973 12.1994866,20.1003634 11.9995692,20.2455425 C11.8003428,20.099869 11.5996242,19.9506526 11.3974137,19.7978759 C5.71470931,15.5044043 3.05882353,11.5761408 3.05882353,8.125 C3.05882353,6.70354274 3.66406201,5.41370844 4.6514542,4.48117138 C5.61756514,3.56873326 6.95105574,3 8.42647059,3 C9.80228144,3 11.0536545,3.49428728 11.9999932,4.30044392 C12.9465232,3.49420258 14.19783,3 15.5735294,3 Z" id="Path" stroke="#000000" stroke-width="2"></path>
    </g>
</svg>