<?xml version="1.0" encoding="UTF-8"?>
<svg width="24px" height="24px" viewBox="0 0 24 24" version="1.1" xmlns="http://www.w3.org/2000/svg" xmlns:xlink="http://www.w3.org/1999/xlink">
    <title>1950Icons/FirstAid-1950@1x</title>
    <g id="1950Icons/FirstAid-1950" stroke="none" stroke-width="1" fill="none" fill-rule="evenodd">
        <path d="M19,7 C20.6568542,7 22,8.34314575 22,10 L22,18 C22,19.6568542 20.6568542,21 19,21 L5,21 C3.34314575,21 2,19.6568542 2,18 L2,10 C2,8.34314575 3.34314575,7 5,7 L19,7 Z M19,9 L5,9 C4.44771525,9 4,9.44771525 4,10 L4,18 C4,18.5522847 4.44771525,19 5,19 L19,19 C19.5522847,19 20,18.5522847 20,18 L20,10 C20,9.44771525 19.5522847,9 19,9 Z" id="Rectangle" fill="#000000" fill-rule="nonzero"></path>
        <path d="M15,3 C16.6568542,3 18,4.34314575 18,6 C18,7.65685425 16.6568542,9 15,9 L9,9 C7.34314575,9 6,7.65685425 6,6 C6,4.34314575 7.34314575,3 9,3 L15,3 Z M15,5 L9,5 C8.44771525,5 8,5.44771525 8,6 C8,6.55228475 8.44771525,7 9,7 L15,7 C15.5522847,7 16,6.55228475 16,6 C16,5.44771525 15.5522847,5 15,5 Z" id="Rectangle" fill="#000000" fill-rule="nonzero"></path>
        <path d="M12.2834473,11.0632324 C12.835732,11.0632324 13.2834473,11.5109477 13.2834473,12.0632324 L13.2834473,16.0632324 C13.2834473,16.6155172 12.835732,17.0632324 12.2834473,17.0632324 C11.7311625,17.0632324 11.2834473,16.6155172 11.2834473,16.0632324 L11.2834473,12.0632324 C11.2834473,11.5109477 11.7311625,11.0632324 12.2834473,11.0632324 Z" id="Path-4" fill="#000000" fill-rule="nonzero"></path>
        <path d="M14.2696826,13.0097011 C14.8219177,13.0022976 15.2755945,13.4439709 15.282998,13.996206 C15.2904015,14.5484411 14.8487283,15.0021179 14.2964931,15.0095214 L10.2968526,15.0631426 C9.74461743,15.0705461 9.29094066,14.6288728 9.28353712,14.0766377 C9.27613359,13.5244026 9.71780685,13.0707258 10.270042,13.0633223 L14.2696826,13.0097011 Z" id="Path-4" fill="#000000" fill-rule="nonzero"></path>
    </g>
</svg>