<?xml version="1.0" encoding="UTF-8"?>
<svg width="24px" height="24px" viewBox="0 0 24 24" version="1.1" xmlns="http://www.w3.org/2000/svg" xmlns:xlink="http://www.w3.org/1999/xlink">
    <title>1950Icons/ICONS-DESIGNED-BY-1950LABS@1x</title>
    <g id="1950Icons/ICONS-DESIGNED-BY-1950LABS" stroke="none" stroke-width="1" fill="none" fill-rule="evenodd">
        <g id="Logo-1950Labs-Redes-Sociales-Circular-Palabra" transform="translate(0.000000, 9.000000)" fill="#000000" fill-rule="nonzero">
            <path d="M0.907982513,1.46772068 L0,1.46772068 L0,0.817475232 C0.201042089,0.82316688 0.40191958,0.800937325 0.597434748,0.751361759 C0.734931136,0.71509503 0.85980631,0.638489978 0.957522275,0.530464981 C1.0632145,0.399262894 1.14403337,0.247975239 1.1956089,0.0847823964 L1.78121325,0.0847823964 L1.78121325,5.91832408 L0.907982513,5.91832408 L0.907982513,1.46772068 Z" id="Path"></path>
            <path d="M2.71951114,5.61964675 C2.49769131,5.36711921 2.38678139,5.00414328 2.38678139,4.53071896 L2.38678139,4.42260399 L3.21047237,4.42260399 L3.21047237,4.58905438 C3.21047237,4.97277179 3.36106339,5.16437123 3.66224543,5.16385269 C3.80009211,5.17558847 3.93506374,5.11787206 4.02602995,5.00829158 C4.10489923,4.90458417 4.14458033,4.71842937 4.14507326,4.44982719 L4.14507326,3.33289841 L4.12880648,3.33289841 C3.97550432,3.67202163 3.71153872,3.84158324 3.33690967,3.84158324 C3.02044671,3.84158324 2.78038836,3.72776436 2.61673462,3.5001266 C2.45308088,3.27248884 2.37125401,2.94192148 2.37125401,2.50842451 L2.37125401,1.46772068 C2.37125401,1.00103734 2.48487505,0.639876296 2.71211715,0.384237536 C2.93935924,0.128598776 3.26642026,0.00103866468 3.6933002,0.00155562721 C4.12116601,0.00155562721 4.4484735,0.129117313 4.67522266,0.384237536 C4.90197182,0.639357759 5.01559287,1.00051881 5.0160858,1.46772068 L5.0160858,4.48249502 C5.0160858,5.49364225 4.57244614,5.99895659 3.68516681,5.99843845 C3.2632162,5.99843845 2.94133097,5.87217428 2.71951114,5.61964675 Z M4.14507326,2.43064396 L4.14507326,1.4008294 C4.14507326,1.02385297 3.99448224,0.835105491 3.6933002,0.834585889 C3.39211817,0.834068417 3.24177361,1.0228159 3.24226534,1.4008294 L3.24226534,2.43375518 C3.24226534,2.81643552 3.3926111,3.00803495 3.6933002,3.00855454 C3.99398931,3.00907203 4.14458033,2.81747259 4.14507326,2.43375518 L4.14507326,2.43064396 Z" id="Shape"></path>
            <path d="M5.87526795,5.61964675 C5.65344812,5.36711921 5.54278467,5.00414328 5.54327597,4.53071896 L5.54327597,4.07259149 L6.36622918,4.07259149 L6.36622918,4.59761024 C6.36622918,4.97562374 6.5168202,5.16437123 6.81800224,5.16385269 C7.11918428,5.16333415 7.26952883,4.97458667 7.2690359,4.59761024 L7.2690359,3.29167471 C7.2690359,2.9079573 7.11869135,2.71635787 6.81800224,2.7168764 C6.51731313,2.71739494 6.36672211,2.90899438 6.36622918,3.29167471 L6.36622918,3.34145427 L5.54327597,3.34145427 L5.70150908,0.0847823964 L7.99734435,0.0847823964 L7.99734435,0.917812149 L6.4771391,0.917812149 L6.40319915,2.30852849 L6.41872654,2.30852849 C6.58213382,2.02540726 6.83352963,1.88384665 7.17069577,1.88384665 C7.4881446,1.88384665 7.72844942,1.99766553 7.89161023,2.22530329 C8.05477104,2.45294105 8.13659791,2.78324914 8.13709084,3.21622757 L8.13709084,4.53227458 C8.13709084,5.00466182 8.02618093,5.36763775 7.80436109,5.62120236 C7.58254126,5.87476697 7.26065604,6.00103074 6.83870542,6 C6.41872654,5.99895659 6.09758072,5.87217428 5.87526795,5.61964675 Z" id="Path"></path>
            <path d="M9.00736398,5.61575772 C8.78061482,5.35960042 8.66724024,4.99843937 8.66724024,4.53227458 L8.66724024,1.46772068 C8.66724024,1.00103734 8.78061482,0.639876296 9.00736398,0.384237536 C9.23411314,0.128598776 9.56142063,0.00103866468 9.98928644,0.00155562721 C10.4166593,0.00155562721 10.7439668,0.129117313 10.9712089,0.384237536 C11.198451,0.639357759 11.3118256,1.00051881 11.3113342,1.46772068 L11.3113342,4.53227458 C11.3113342,4.99895791 11.1979581,5.36011896 10.9712089,5.61575772 C10.7444597,5.87139648 10.4171522,5.99895659 9.98928644,5.99843963 C9.56191356,5.99843963 9.23460608,5.87087794 9.00736398,5.61575772 Z M10.4403201,4.59060999 L10.4403201,1.40938526 C10.4403201,1.02566785 10.2899755,0.834068417 9.98928644,0.834585904 C9.68859733,0.835105491 9.53825278,1.02670493 9.53825278,1.40938526 L9.53825278,4.59060999 C9.53825278,4.9743274 9.68859733,5.16592684 9.98928644,5.16540935 C10.2899755,5.16488976 10.4403201,4.97329033 10.4403201,4.59060999 Z" id="Shape"></path>
            <polygon id="Path" points="11.8385244 0.0847823964 12.709537 0.0847823964 12.709537 5.08218311 14.1432325 5.08218311 14.1432325 5.91521286 11.8385244 5.91521286"></polygon>
            <path d="M15.5724916,0.0847823964 L16.7555307,0.0847823964 L17.657598,5.91832408 L16.7836279,5.91832408 L16.6253964,4.76094941 L16.6253964,4.77728333 L15.63608,4.77728333 L15.4741515,5.91521286 L14.6696849,5.91521286 L15.5724916,0.0847823964 Z M16.5226199,3.98314385 L16.1344352,1.10059645 L16.1189078,1.10059645 L15.7388565,3.98314385 L16.5226199,3.98314385 Z" id="Shape"></path>
            <path d="M18.1818322,0.0847823964 L19.4964844,0.0847823964 C19.9455464,0.0847823964 20.2728539,0.19445298 20.4784069,0.413794147 C20.6839599,0.633135315 20.7867365,0.97018439 20.7867365,1.42494137 L20.7867365,1.65828304 C20.796307,1.91057396 20.748924,2.16166108 20.6484688,2.39097588 C20.5591785,2.57678477 20.4085451,2.72196845 20.2247929,2.79932379 L20.2247929,2.81565771 C20.657588,2.97121882 20.8739856,3.37671479 20.8739856,4.0321456 L20.8739856,4.53149677 C20.8739856,4.98210546 20.7618434,5.32511771 20.5375589,5.56053352 C20.3132744,5.79594934 19.9847345,5.91391652 19.5519394,5.91443505 L18.1818322,5.91443505 L18.1818322,0.0847823964 Z M19.3929685,2.45553374 C19.5365327,2.46695669 19.6782442,2.41576583 19.7848502,2.31397313 C19.8720994,2.21985865 19.9149845,2.06118632 19.9149845,1.83873393 L19.9149845,1.51438901 C19.9149845,1.30360371 19.8794934,1.15037601 19.808511,1.05626154 C19.7237894,0.956018813 19.5991537,0.903574979 19.4720843,0.914700927 L19.0528448,0.914700927 L19.0528448,2.45553374 L19.3929685,2.45553374 Z M19.5512,5.07907188 C19.6770179,5.09002232 19.8011473,5.04290107 19.8913237,4.94995616 C19.9652637,4.86439755 20.0022337,4.71583669 20.0022337,4.50427358 L20.0022337,3.99636655 C20.0022337,3.72931997 19.9588556,3.54472079 19.8720994,3.44256899 C19.7853432,3.34041719 19.6414067,3.28856349 19.4402901,3.28700788 L19.0528448,3.28700788 L19.0528448,5.07596066 L19.5512,5.07907188 Z" id="Shape"></path>
            <path d="M21.7257738,5.61964675 C21.5088833,5.36711921 21.4006845,5.00414328 21.4011757,4.53071896 L21.4011757,4.19781819 L22.2248684,4.19781819 L22.2248684,4.59761024 C22.2248684,4.97562374 22.3752129,5.16437123 22.675902,5.16385269 C22.8018003,5.17300726 22.9250583,5.12285296 23.0123288,5.02695891 C23.0862687,4.93517785 23.1269357,4.78661699 23.1269357,4.58127633 C23.1315178,4.3548851 23.0767746,4.1315349 22.9687042,3.93569771 C22.8632166,3.74954292 22.6680151,3.52605345 22.3830999,3.26522932 C22.0237517,2.93129147 21.7730953,2.63002145 21.6311306,2.36141926 C21.4858245,2.08193311 21.4119419,1.76756811 21.4167048,1.44905334 C21.4167048,0.988592455 21.5276147,0.631838972 21.7494345,0.378792897 C21.9712544,0.125746822 22.2933861,-0.000516946434 22.7158296,0 C23.1328509,0 23.4480815,0.126265359 23.6615215,0.378792897 C23.8749615,0.631320435 23.9819279,0.994296362 23.9824208,1.46772068 L23.9824208,1.7088404 L23.1587299,1.7088404 L23.1587299,1.40938526 C23.1587299,1.20922996 23.1217599,1.06326179 23.04782,0.971480732 C22.9650617,0.87626616 22.845588,0.825879838 22.7232236,0.834586954 C22.433379,0.834586954 22.2882103,1.02048248 22.2877173,1.39227354 C22.2871385,1.60186281 22.3435827,1.80724999 22.4503852,1.98418357 C22.6168278,2.23426243 22.8159614,2.45840284 23.0419048,2.64998513 C23.4056893,2.98392298 23.6563457,3.28648934 23.793874,3.55768421 C23.9365397,3.85435552 24.0071586,4.18356953 23.999427,4.51594066 C23.999427,4.99351327 23.8872848,5.36011896 23.6630003,5.61575772 C23.4387158,5.87139648 23.1128871,5.99895659 22.6855142,5.99843963 C22.2625778,5.99843963 21.9426643,5.87217428 21.7257738,5.61964675 Z" id="Path"></path>
        </g>
    </g>
</svg>