<?xml version="1.0" encoding="UTF-8"?>
<svg width="24px" height="24px" viewBox="0 0 24 24" version="1.1" xmlns="http://www.w3.org/2000/svg" xmlns:xlink="http://www.w3.org/1999/xlink">
    <title>1950Icons/Inbox-1950@1x</title>
    <g id="1950Icons/Inbox-1950" stroke="none" stroke-width="1" fill="none" fill-rule="evenodd">
        <path d="M3,22 C2.44771525,22 2,21.5522847 2,21 L2,16.6 C2,16.0477153 2.44771525,15.6 3,15.6 C3.55228475,15.6 4,16.0477153 4,16.6 L4,20 L20,20 L20,16.6 C20,16.0477153 20.4477153,15.6 21,15.6 C21.5522847,15.6 22,16.0477153 22,16.6 L22,21 C22,21.5128358 21.6139598,21.9355072 21.1166211,21.9932723 L21,22 L3,22 Z" id="Combined-Shape" fill="#000000" fill-rule="nonzero"></path>
        <path d="M12.5,18.4230769 L12.3833789,18.4163492 L12.3621992,18.4159627 C12.086703,18.4054421 11.8167723,18.2817001 11.6278151,18.0520645 L6.82781508,12.2187312 C6.47689453,11.7922653 6.53813617,11.162069 6.96460213,10.8111484 C7.39106808,10.4602279 8.02126436,10.5214695 8.37218492,10.9479355 L11.4999715,14.7489231 L11.5,3.57692308 C11.5,3.02463833 11.9477153,2.57692308 12.5,2.57692308 C13.0522847,2.57692308 13.5,3.02463833 13.5,3.57692308 L13.4999715,14.7479231 L16.6278151,10.9479355 C16.9787356,10.5214695 17.6089319,10.4602279 18.0353979,10.8111484 C18.4618638,11.162069 18.5231055,11.7922653 18.1721849,12.2187312 L13.3721849,18.0520645 C13.1832277,18.2817001 12.913297,18.4054421 12.6378008,18.4159627 L12.6166211,18.4163492 C12.5783643,18.4207927 12.5394489,18.4230769 12.5,18.4230769 Z" id="Combined-Shape" fill="#000000" fill-rule="nonzero"></path>
    </g>
</svg>