<?xml version="1.0" encoding="UTF-8"?>
<svg width="24px" height="24px" viewBox="0 0 24 24" version="1.1" xmlns="http://www.w3.org/2000/svg" xmlns:xlink="http://www.w3.org/1999/xlink">
    <title>1950Icons/Label-1950@1x</title>
    <g id="1950Icons/Label-1950" stroke="none" stroke-width="1" fill="none" fill-rule="evenodd">
        <path d="M12.4999563,1.9996288 L3.99995633,2 C3.4381414,2.00002454 2.98659858,2.4627351 3.00029731,3.02438299 L3.21242934,11.7217964 C3.21869032,11.9784966 3.32345682,12.2229518 3.50502525,12.4045202 L11.7781746,20.6776695 C12.1686989,21.0681938 12.8018639,21.0681938 13.1923882,20.6776695 L21.6776695,12.1923882 C22.0679481,11.8021096 22.0682296,11.1694299 21.6782985,10.7788041 L13.2077358,2.29315157 C13.0201378,2.1052194 12.7654963,1.9996288 12.4999563,1.9996288 Z M12.084,3.999 L19.557,11.484 L12.485,18.556 L5.201,11.272 L5.024,3.999 L12.084,3.999 Z" id="Rectangle" fill="#000000" fill-rule="nonzero"></path>
        <path d="M11.0710678,10.0710678 C11.8521164,9.29001923 11.8521164,8.02368927 11.0710678,7.24264069 C10.2900192,6.4615921 9.02368927,6.4615921 8.24264069,7.24264069 C7.4615921,8.02368927 7.4615921,9.29001923 8.24264069,10.0710678 C9.02368927,10.8521164 10.2900192,10.8521164 11.0710678,10.0710678 Z" id="Oval" fill="#000000"></path>
    </g>
</svg>