<?xml version="1.0" encoding="UTF-8"?>
<svg width="24px" height="24px" viewBox="0 0 24 24" version="1.1" xmlns="http://www.w3.org/2000/svg" xmlns:xlink="http://www.w3.org/1999/xlink">
    <title>1950Icons/List-1950@1x</title>
    <g id="1950Icons/List-1950" stroke="none" stroke-width="1" fill="none" fill-rule="evenodd">
        <path d="M17,2 L7,2 C4.790861,2 3,3.790861 3,6 L3,18 C3,20.209139 4.790861,22 7,22 L17,22 C19.209139,22 21,20.209139 21,18 L21,6 C21,3.790861 19.209139,2 17,2 Z M17,4 C18.1045695,4 19,4.8954305 19,6 L19,18 C19,19.1045695 18.1045695,20 17,20 L7,20 C5.8954305,20 5,19.1045695 5,18 L5,6 C5,4.8954305 5.8954305,4 7,4 L17,4 Z" id="Rectangle" fill="#000000" fill-rule="nonzero"></path>
        <rect id="Rectangle" fill="#000000" x="10" y="15" width="7" height="2"></rect>
        <rect id="Rectangle-Copy-3" fill="#000000" x="7" y="15" width="2" height="2"></rect>
        <rect id="Rectangle-Copy" fill="#000000" x="10" y="11" width="7" height="2"></rect>
        <rect id="Rectangle-Copy-4" fill="#000000" x="7" y="11" width="2" height="2"></rect>
        <rect id="Rectangle-Copy-2" fill="#000000" x="10" y="7" width="7" height="2"></rect>
        <rect id="Rectangle-Copy-5" fill="#000000" x="7" y="7" width="2" height="2"></rect>
    </g>
</svg>