<?xml version="1.0" encoding="UTF-8"?>
<svg width="24px" height="24px" viewBox="0 0 24 24" version="1.1" xmlns="http://www.w3.org/2000/svg" xmlns:xlink="http://www.w3.org/1999/xlink">
    <title>1950Icons/Mail-1950@1x</title>
    <g id="1950Icons/Mail-1950" stroke="none" stroke-width="1" fill="none" fill-rule="evenodd">
        <g id="Group-6" transform="translate(2.414509, 5.000000)" fill="#000000" fill-rule="nonzero">
            <g id="Group">
                <path d="M18,2.18932077 L19.1709811,3.81067923 L10.1709811,10.3106792 C9.82146584,10.5631069 9.34951527,10.5631069 9,10.3106792 L0,3.81067923 L1.17098111,2.18932077 L9.58549055,8.266 L18,2.18932077 Z" id="Rectangle"></path>
                <path d="M16.5854906,-1 L2.58549055,-1 C0.928636304,-1 -0.414509446,0.343145751 -0.414509446,2 L-0.414509446,12 C-0.414509446,13.6568542 0.928636304,15 2.58549055,15 L16.5854906,15 C18.2423448,15 19.5854906,13.6568542 19.5854906,12 L19.5854906,2 C19.5854906,0.343145751 18.2423448,-1 16.5854906,-1 Z M16.5854906,1 C17.1377753,1 17.5854906,1.44771525 17.5854906,2 L17.5854906,12 C17.5854906,12.5522847 17.1377753,13 16.5854906,13 L2.58549055,13 C2.0332058,13 1.58549055,12.5522847 1.58549055,12 L1.58549055,2 C1.58549055,1.44771525 2.0332058,1 2.58549055,1 L16.5854906,1 Z" id="Rectangle"></path>
            </g>
        </g>
    </g>
</svg>