<?xml version="1.0" encoding="UTF-8"?>
<svg width="24px" height="24px" viewBox="0 0 24 24" version="1.1" xmlns="http://www.w3.org/2000/svg" xmlns:xlink="http://www.w3.org/1999/xlink">
    <title>1950Icons/notification-number@1x</title>
    <g id="1950Icons/notification-number" stroke="none" stroke-width="1" fill="none" fill-rule="evenodd">
        <path d="M12,2 C17.5228475,2 22,6.4771525 22,12 C22,17.5228475 17.5228475,22 12,22 C6.4771525,22 2,17.5228475 2,12 C2,6.4771525 6.4771525,2 12,2 Z M11.4995,6.542 C10.7808333,6.542 10.1578333,6.682 9.6305,6.962 C9.10316667,7.242 8.69716667,7.63866667 8.4125,8.152 C8.12783333,8.66533333 7.9855,9.26733333 7.9855,9.958 C7.9855,10.658 8.1185,11.253 8.3845,11.743 C8.6505,12.233 9.01683333,12.6016667 9.4835,12.849 C9.95016667,13.0963333 10.4821667,13.22 11.0795,13.22 C11.5181667,13.22 11.9148333,13.1406667 12.2695,12.982 C12.6241667,12.8233333 12.9041667,12.5993333 13.1095,12.31 C13.1095,13.2993333 13.0068333,14.0133333 12.8015,14.452 C12.5961667,14.8906667 12.2461667,15.11 11.7515,15.11 C11.0328333,15.11 10.6035,14.7413333 10.4635,14.004 L8.2515,14.004 C8.28883333,14.5546667 8.4405,15.0586667 8.7065,15.516 C8.9725,15.9733333 9.35516667,16.342 9.8545,16.622 C10.3538333,16.902 10.9581667,17.042 11.6675,17.042 C12.5635,17.042 13.2705,16.8366667 13.7885,16.426 C14.3065,16.0153333 14.6751667,15.4156667 14.8945,14.627 C15.1138333,13.8383333 15.2235,12.8373333 15.2235,11.624 C15.2235,9.95333333 14.9481667,8.68866667 14.3975,7.83 C13.8468333,6.97133333 12.8808333,6.542 11.4995,6.542 Z M11.5695,8.6 C11.9801667,8.6 12.3068333,8.72133333 12.5495,8.964 C12.7921667,9.20666667 12.9135,9.552 12.9135,10 C12.9135,10.4106667 12.7968333,10.735 12.5635,10.973 C12.3301667,11.211 12.0175,11.33 11.6255,11.33 C11.1775,11.33 10.8345,11.2063333 10.5965,10.959 C10.3585,10.7116667 10.2395,10.3873333 10.2395,9.986 C10.2395,9.55666667 10.3585,9.21833333 10.5965,8.971 C10.8345,8.72366667 11.1588333,8.6 11.5695,8.6 Z" id="Combined-Shape" fill="#000000"></path>
    </g>
</svg>