<?xml version="1.0" encoding="UTF-8"?>
<svg width="24px" height="24px" viewBox="0 0 24 24" version="1.1" xmlns="http://www.w3.org/2000/svg" xmlns:xlink="http://www.w3.org/1999/xlink">
    <title>1950Icons/Notifications-1950@1x</title>
    <g id="1950Icons/Notifications-1950" stroke="none" stroke-width="1" fill="none" fill-rule="evenodd">
        <path d="M12.0043502,3 L11.7489097,3.00337062 C7.27770114,3.12241012 5.01021372,6.39155414 4.99267763,12.3399404 L4.997,12.845 L3.0513167,18.6837722 C2.835473,19.3313033 3.31744227,20 4,20 L20,20 L20.1182679,19.9931989 C20.7368454,19.921403 21.1518303,19.2932133 20.9486833,18.6837722 L19.003,12.847 L18.999669,13.0257288 C19.1669183,6.5274121 16.8170153,3 12.0043502,3 Z M12.0043502,5 C15.4947329,5 17.1419297,7.4725879 17.000331,12.9742712 L17.0040617,13.0900381 C17.0110085,13.1668784 17.0268365,13.2427873 17.0513167,13.3162278 L18.612,18 L5.387,18 L6.9486833,13.3162278 C6.98530095,13.2063748 7.00256079,13.0909966 6.99969335,12.975237 C6.86340619,7.47326856 8.51344737,5 12.0043502,5 Z" id="Path-11" fill="#000000" fill-rule="nonzero"></path>
        <path d="M12,22 C13.6568542,22 15,20.6568542 15,19 L9,19 C9,20.6568542 10.3431458,22 12,22 Z" id="Oval" fill="#000000"></path>
        <path d="M12,4 C13.1045695,4 14,3.1045695 14,2 L10,2 C10,3.1045695 10.8954305,4 12,4 Z" id="Oval-Copy" fill="#000000" transform="translate(12.000000, 3.000000) scale(1, -1) translate(-12.000000, -3.000000) "></path>
    </g>
</svg>