<?xml version="1.0" encoding="UTF-8"?>
<svg width="24px" height="24px" viewBox="0 0 24 24" version="1.1" xmlns="http://www.w3.org/2000/svg" xmlns:xlink="http://www.w3.org/1999/xlink">
    <title>1950Icons/Plugin-1950@1x</title>
    <g id="1950Icons/Plugin-1950" stroke="none" stroke-width="1" fill="none" fill-rule="evenodd">
        <path d="M16.2885822,5.25304833 L11.2885822,5.25304833 C9.63172798,5.25304833 8.28858223,6.59619408 8.28858223,8.25304833 L8.28858223,14.2530483 C8.28858223,15.9099026 9.63172798,17.2530483 11.2885822,17.2530483 L16.2885822,17.2530483 C16.840867,17.2530483 17.2885822,16.8053331 17.2885822,16.2530483 L17.2885822,6.25304833 C17.2885822,5.70076358 16.840867,5.25304833 16.2885822,5.25304833 Z M15.288,15.2530483 L11.2885822,15.2530483 C10.7362975,15.2530483 10.2885822,14.8053331 10.2885822,14.2530483 L10.2885822,8.25304833 L10.29531,8.1364272 C10.3530751,7.63908852 10.7757464,7.253 11.2885822,7.253 L15.288,7.253 L15.288,15.2530483 Z" id="Rectangle" fill="#000000" fill-rule="nonzero" transform="translate(12.788582, 11.253048) rotate(-45.000000) translate(-12.788582, -11.253048) "></path>
        <path d="M13.2050747,3.91004705 L17.0269002,3.9750182 C17.5791051,3.98440571 18.0191456,4.43966635 18.0097581,4.99187131 C18.0003706,5.54407627 17.54511,5.98411677 16.992905,5.97472926 L13.1710796,5.90975811 C12.6188746,5.9003706 12.1788341,5.44510996 12.1882216,4.892905 C12.1976091,4.34070004 12.6528698,3.90065954 13.2050747,3.91004705 Z" id="Line" fill="#000000" fill-rule="nonzero" transform="translate(15.098990, 4.942388) rotate(-45.000000) translate(-15.098990, -4.942388) "></path>
        <path d="M2.52885271,16.3804652 L10.4283476,16.4099095 C10.9806286,16.4119676 11.4266723,16.8613481 11.4246214,17.413629 C11.4225562,17.9659099 10.9731757,18.4119537 10.4208948,18.4099027 L2.52139982,18.3804652 C1.9691189,18.3784003 1.52307515,17.9290198 1.52512612,17.3767389 C1.52719127,16.824458 1.9765718,16.3784142 2.52885271,16.3804652 Z" id="Line-4" fill="#000000" fill-rule="nonzero" transform="translate(6.474874, 17.395184) rotate(-45.000000) translate(-6.474874, -17.395184) "></path>
        <path d="M21.6651616,7.63172796 C22.2174457,7.63084824 22.6658745,8.07784872 22.6667569,8.63013277 C22.6676366,9.18241681 22.2206361,9.6308457 21.668352,9.63172796 L17.8465266,9.63782467 C17.2942426,9.63870438 16.8458137,9.1917039 16.8449314,8.63941986 C16.8440517,8.08713581 17.2910522,7.63870693 17.8433362,7.63782591 L21.6651616,7.63172796 Z" id="Line-Copy" fill="#000000" fill-rule="nonzero" transform="translate(19.755844, 8.634776) rotate(-45.000000) translate(-19.755844, -8.634776) "></path>
    </g>
</svg>