<?xml version="1.0" encoding="UTF-8"?>
<svg width="24px" height="24px" viewBox="0 0 24 24" version="1.1" xmlns="http://www.w3.org/2000/svg" xmlns:xlink="http://www.w3.org/1999/xlink">
    <title>1950Icons/Price-1950@1x</title>
    <g id="1950Icons/Price-1950" stroke="none" stroke-width="1" fill="none" fill-rule="evenodd">
        <path d="M12.5,2 C8.35786438,2 5,5.35786438 5,9.5 C5,13.6421356 8.35786438,17 12.5,17 C16.6421356,17 20,13.6421356 20,9.5 C20,5.35786438 16.6421356,2 12.5,2 Z" id="Path" fill="#000000" fill-rule="nonzero"></path>
        <path d="M12.5,4 C15.5375661,4 18,6.46243388 18,9.5 C18,12.5375661 15.5375661,15 12.5,15 C9.46243388,15 7,12.5375661 7,9.5 C7,6.46243388 9.46243388,4 12.5,4 Z" id="Path" fill="#FFFFFF" fill-rule="nonzero"></path>
        <path d="M13.7768555,13 L12.2680664,13 L12.2680664,8.86914062 L12.2827148,8.19042969 L12.3071289,7.44824219 C12.0564779,7.69889323 11.8823242,7.86328125 11.784668,7.94140625 L10.9643555,8.60058594 L10.2368164,7.69238281 L12.5366211,5.86132812 L13.7768555,5.86132812 L13.7768555,13 Z" id="Path" fill="#000000" fill-rule="nonzero"></path>
        <path d="M9.01586416,13.996014 L9.015,19.499 L12.1000002,18.1221968 C12.322012,18.0230762 12.571152,18.0087691 12.8010131,18.0793068 L12.9141222,18.1216462 L16.015,19.501 L16.0158642,13.996014 L18.0158642,13.996014 L18.0158642,21.0407614 C18.0158642,21.7645637 17.2707417,22.248622 16.6094209,21.9544374 L12.509,20.129 L8.42354292,21.9538868 C7.79883499,22.2327971 7.09851623,21.8165261 7.02263115,21.1591747 L7.01586416,21.0407614 L7.01586416,13.996014 L9.01586416,13.996014 Z" id="Path" fill="#000000" fill-rule="nonzero"></path>
    </g>
</svg>