<?xml version="1.0" encoding="UTF-8"?>
<svg width="24px" height="24px" viewBox="0 0 24 24" version="1.1" xmlns="http://www.w3.org/2000/svg" xmlns:xlink="http://www.w3.org/1999/xlink">
    <title>1950Icons/Printer-1950@1x</title>
    <g id="1950Icons/Printer-1950" stroke="none" stroke-width="1" fill="none" fill-rule="evenodd">
        <path d="M16,2 C17.1045695,2 18,2.8954305 18,4 L18,7.02218954 L6,7.02218954 L6,4 C6,2.8954305 6.8954305,2 8,2 L16,2 Z M16,4 L8,4 L8,8 L16,8 L16,4 Z" id="Rectangle" fill="#000000" fill-rule="nonzero"></path>
        <path d="M20,6 C21.1045695,6 22,6.8954305 22,8 L22,17 C22,18.1045695 21.1045695,19 20,19 L4,19 C2.8954305,19 2,18.1045695 2,17 L2,8 C2,6.8954305 2.8954305,6 4,6 L20,6 Z M20,8 L4,8 L4,17 L20,17 L20,8 Z" id="Rectangle" fill="#000000" fill-rule="nonzero"></path>
        <rect id="Rectangle" stroke="#000000" stroke-width="2" fill="#FFFFFF" x="6" y="13" width="12" height="8" rx="2"></rect>
        <path d="M15,14.5 C15.5522847,14.5 16,14.9477153 16,15.5 C16,16.0522847 15.5522847,16.5 15,16.5 L9,16.5 C8.44771525,16.5 8,16.0522847 8,15.5 C8,14.9477153 8.44771525,14.5 9,14.5 L15,14.5 Z" id="Line-7" fill="#000000" fill-rule="nonzero"></path>
        <path d="M15,17.5 C15.5522847,17.5 16,17.9477153 16,18.5 C16,19.0522847 15.5522847,19.5 15,19.5 L9,19.5 C8.44771525,19.5 8,19.0522847 8,18.5 C8,17.9477153 8.44771525,17.5 9,17.5 L15,17.5 Z" id="Line-7" fill="#000000" fill-rule="nonzero"></path>
    </g>
</svg>