<?xml version="1.0" encoding="UTF-8"?>
<svg width="24px" height="24px" viewBox="0 0 24 24" version="1.1" xmlns="http://www.w3.org/2000/svg" xmlns:xlink="http://www.w3.org/1999/xlink">
    <title>1950Icons/Prospoeroty-1950@1x</title>
    <g id="1950Icons/Prospoeroty-1950" stroke="none" stroke-width="1" fill="none" fill-rule="evenodd">
        <path d="M21,20 C21.5522847,20 22,20.4477153 22,21 C22,21.5522847 21.5522847,22 21,22 L3,22 C2.44771525,22 2,21.5522847 2,21 C2,20.4477153 2.44771525,20 3,20 L21,20 Z" id="Line-4" fill="#000000" fill-rule="nonzero"></path>
        <path d="M7.11538462,10.0168367 C7.66766937,10.0168367 8.11538462,10.4645519 8.11538462,11.0168367 L8.11538462,19.9797996 C8.11538462,20.5320844 7.66766937,20.9797996 7.11538462,20.9797996 C6.56309987,20.9797996 6.11538462,20.5320844 6.11538462,19.9797996 L6.11538462,11.0168367 C6.11538462,10.4645519 6.56309987,10.0168367 7.11538462,10.0168367 Z" id="Line-3" fill="#000000" fill-rule="nonzero"></path>
        <path d="M17.1153846,10.0168367 C17.6676694,10.0168367 18.1153846,10.4645519 18.1153846,11.0168367 L18.1153846,19.9797996 C18.1153846,20.5320844 17.6676694,20.9797996 17.1153846,20.9797996 C16.5630999,20.9797996 16.1153846,20.5320844 16.1153846,19.9797996 L16.1153846,11.0168367 C16.1153846,10.4645519 16.5630999,10.0168367 17.1153846,10.0168367 Z" id="Line-3" fill="#000000" fill-rule="nonzero"></path>
        <path d="M12.1153846,8.38720703 C12.6676694,8.38720703 13.1153846,8.83492228 13.1153846,9.38720703 L13.1153846,19.9797996 C13.1153846,20.5320844 12.6676694,20.9797996 12.1153846,20.9797996 C11.5630999,20.9797996 11.1153846,20.5320844 11.1153846,19.9797996 L11.1153846,9.38720703 C11.1153846,8.83492228 11.5630999,8.38720703 12.1153846,8.38720703 Z" id="Line-3" fill="#000000" fill-rule="nonzero"></path>
        <path d="M2.38605939,9.21064778 L12.0290496,1.7105443 L16.67,5.669 L19.328368,3.25911513 C19.706072,2.91671623 20.2739805,2.91679678 20.6508642,3.2406659 L20.7408849,3.32836795 C21.111817,3.73754737 21.0808115,4.36995273 20.671632,4.74088487 L16.7108503,8.33144001 L11.971,4.289 L3.61394061,10.7893522 C3.21152782,11.1023399 2.64523757,11.059499 2.29380936,10.7081718 L2.21064778,10.6139406 C1.87157774,10.1779934 1.95011219,9.54971782 2.38605939,9.21064778 Z" id="Path-6" fill="#000000" fill-rule="nonzero"></path>
        <path d="M21,2 C21.5522847,2 22,2.44771525 22,3 L22,6.88720703 C22,7.43949178 21.5522847,7.88720703 21,7.88720703 C20.4477153,7.88720703 20,7.43949178 20,6.88720703 L20,4 L17.0047094,4 C16.4918736,4 16.0692023,3.61395981 16.0114371,3.11662113 L16.0047094,3 C16.0047094,2.44771525 16.4524247,2 17.0047094,2 L21,2 Z" id="Path-7" fill="#000000" fill-rule="nonzero"></path>
    </g>
</svg>