<?xml version="1.0" encoding="UTF-8"?>
<svg width="24px" height="24px" viewBox="0 0 24 24" version="1.1" xmlns="http://www.w3.org/2000/svg" xmlns:xlink="http://www.w3.org/1999/xlink">
    <title>1950Icons/Search-1950 3@1x</title>
    <g id="1950Icons/Search-1950" stroke="none" stroke-width="1" fill="none" fill-rule="evenodd">
        <g id="Group-2" transform="translate(2.000000, 2.000000)" fill="#000000" fill-rule="nonzero">
            <g id="Group">
                <path d="M8,0 C3.581722,0 0,3.581722 0,8 C0,12.418278 3.581722,16 8,16 C12.418278,16 16,12.418278 16,8 C16,3.581722 12.418278,0 8,0 Z M8,2 C11.3137085,2 14,4.6862915 14,8 C14,11.3137085 11.3137085,14 8,14 C4.6862915,14 2,11.3137085 2,8 C2,4.6862915 4.6862915,2 8,2 Z" id="Oval"></path>
                <path d="M12.2928932,12.2928932 C12.6834175,11.9023689 13.3165825,11.9023689 13.7071068,12.2928932 L19.7071068,18.2928932 C20.0976311,18.6834175 20.0976311,19.3165825 19.7071068,19.7071068 C19.3165825,20.0976311 18.6834175,20.0976311 18.2928932,19.7071068 L12.2928932,13.7071068 C11.9023689,13.3165825 11.9023689,12.6834175 12.2928932,12.2928932 Z" id="Line"></path>
            </g>
        </g>
    </g>
</svg>