<?xml version="1.0" encoding="UTF-8"?>
<svg width="24px" height="24px" viewBox="0 0 24 24" version="1.1" xmlns="http://www.w3.org/2000/svg" xmlns:xlink="http://www.w3.org/1999/xlink">
    <title>1950Icons/SearchFolder-1950@1x</title>
    <g id="1950Icons/SearchFolder-1950" stroke="none" stroke-width="1" fill="none" fill-rule="evenodd">
        <g id="Group-2" transform="translate(2.000000, 3.000000)" fill="#000000" fill-rule="nonzero">
            <path d="M17,0 C18.6568542,0 20,1.34314575 20,3 L20,15 C20,16.6568542 18.6568542,18 17,18 L3,18 C1.34314575,18 0,16.6568542 0,15 L0,3 C0,1.34314575 1.34314575,0 3,0 L17,0 Z M17,2 L3,2 C2.44771525,2 2,2.44771525 2,3 L2,15 C2,15.5522847 2.44771525,16 3,16 L17,16 C17.5522847,16 18,15.5522847 18,15 L18,3 C18,2.44771525 17.5522847,2 17,2 Z" id="Rectangle"></path>
            <path d="M13,0 C13.5522847,0 14,0.44771525 14,1 L14,4 C14,4.55228475 13.5522847,5 13,5 L7,5 C6.44771525,5 6,4.55228475 6,4 L6,1 C6,0.44771525 6.44771525,0 7,0 L13,0 Z M12,2 L8,2 L8,3 L12,3 L12,2 Z" id="Rectangle"></path>
            <path d="M11.5,7 C13.4329966,7 15,8.56700338 15,10.5 C15,12.4329966 13.4329966,14 11.5,14 C9.56700338,14 8,12.4329966 8,10.5 C8,8.56700338 9.56700338,7 11.5,7 Z M11.5,9 C10.6715729,9 10,9.67157288 10,10.5 C10,11.3284271 10.6715729,12 11.5,12 C12.3284271,12 13,11.3284271 13,10.5 C13,9.67157288 12.3284271,9 11.5,9 Z" id="Oval"></path>
            <path d="M13.32327,12.2645233 C13.7251899,11.8857372 14.3580771,11.9044908 14.7368631,12.3064107 L16.1755566,13.83297 C16.5543427,14.2348898 16.535589,14.867777 16.1336692,15.2465631 C15.7317494,15.6253492 15.0988622,15.6065956 14.7200761,15.2046757 L13.2813827,13.6781164 C12.9025966,13.2761966 12.9213502,12.6433094 13.32327,12.2645233 Z" id="Line-2" transform="translate(14.728470, 13.755543) rotate(-1.000000) translate(-14.728470, -13.755543) "></path>
        </g>
    </g>
</svg>