<?xml version="1.0" encoding="UTF-8"?>
<svg width="24px" height="24px" viewBox="0 0 24 24" version="1.1" xmlns="http://www.w3.org/2000/svg" xmlns:xlink="http://www.w3.org/1999/xlink">
    <title>1950Icons/Search-job-1950@1x</title>
    <g id="1950Icons/Search-job-1950" stroke="none" stroke-width="1" fill="none" fill-rule="evenodd">
        <path d="M10,2 C5.581722,2 2,5.581722 2,10 C2,14.418278 5.581722,18 10,18 C14.418278,18 18,14.418278 18,10 C18,5.581722 14.418278,2 10,2 Z M10,4 C13.3137085,4 16,6.6862915 16,10 C16,13.3137085 13.3137085,16 10,16 C6.6862915,16 4,13.3137085 4,10 C4,6.6862915 6.6862915,4 10,4 Z" id="Oval" fill="#000000" fill-rule="nonzero"></path>
        <path d="M14.2928932,14.2928932 C14.6834175,13.9023689 15.3165825,13.9023689 15.7071068,14.2928932 L21.7071068,20.2928932 C22.0976311,20.6834175 22.0976311,21.3165825 21.7071068,21.7071068 C21.3165825,22.0976311 20.6834175,22.0976311 20.2928932,21.7071068 L14.2928932,15.7071068 C13.9023689,15.3165825 13.9023689,14.6834175 14.2928932,14.2928932 Z" id="Line" fill="#000000" fill-rule="nonzero"></path>
        <path d="M13,8 C13.5522847,8 14,8.44771525 14,9 L14,13 C14,13.5522847 13.5522847,14 13,14 L7,14 C6.44771525,14 6,13.5522847 6,13 L6,9 C6,8.44771525 6.44771525,8 7,8 L13,8 Z M12,10 L8,10 L8,12 L12,12 L12,10 Z" id="Rectangle" fill="#000000" fill-rule="nonzero"></path>
        <path d="M11.2222222,6 C11.774507,6 12.2222222,6.44771525 12.2222222,7 L12.2222222,8 C12.2222222,8.55228475 11.774507,9 11.2222222,9 L8.77777778,9 C8.22549303,9 7.77777778,8.55228475 7.77777778,8 L7.77777778,7 C7.77777778,6.44771525 8.22549303,6 8.77777778,6 L11.2222222,6 Z" id="Rectangle" fill="#000000" fill-rule="nonzero"></path>
    </g>
</svg>