<?xml version="1.0" encoding="UTF-8"?>
<svg width="24px" height="24px" viewBox="0 0 24 24" version="1.1" xmlns="http://www.w3.org/2000/svg" xmlns:xlink="http://www.w3.org/1999/xlink">
    <title>1950Icons/shopping-cart-1950@1x</title>
    <g id="1950Icons/shopping-cart-1950" stroke="none" stroke-width="1" fill="none" fill-rule="evenodd">
        <path d="M20.3292904,6 C21.4338599,6 22.3292904,6.8954305 22.3292904,8 C22.3292904,8.32972771 22.2477687,8.65434065 22.0919814,8.94494469 L18.875497,14.9449447 C18.5272421,15.5945761 17.8498965,16 17.112806,16 L7.88124847,16 L7.88124847,14 L17.112806,14 L20.3292904,8 L6,8 L6,6 L20.3292904,6 Z" id="Rectangle" fill="#000000" fill-rule="nonzero"></path>
        <path d="M5,2 C5.46235077,2 5.86441995,2.31695799 5.97236434,2.76653139 L8.85361281,14.7665314 C8.98255396,15.3035534 8.65173908,15.8434232 8.11471708,15.9723643 C7.57769508,16.1013055 7.03782528,15.7704906 6.90888413,15.2334686 L4.211,4 L3,4 C2.48716416,4 2.06449284,3.61395981 2.00672773,3.11662113 L2,3 C2,2.44771525 2.44771525,2 3,2 L5,2 Z" id="Line-2" fill="#000000" fill-rule="nonzero"></path>
        <circle id="Oval" fill="#000000" cx="17.5" cy="20.5" r="1.5"></circle>
        <circle id="Oval-Copy" fill="#000000" cx="7.5" cy="20.5" r="1.5"></circle>
    </g>
</svg>