<?xml version="1.0" encoding="UTF-8"?>
<svg width="24px" height="24px" viewBox="0 0 24 24" version="1.1" xmlns="http://www.w3.org/2000/svg" xmlns:xlink="http://www.w3.org/1999/xlink">
    <title>1950Icons/Store-1950@1x</title>
    <g id="1950Icons/Store-1950" stroke="none" stroke-width="1" fill="none" fill-rule="evenodd">
        <path d="M21,10 L3,10 L3,18 C3,20.209139 4.790861,22 7,22 L17,22 C19.209139,22 21,20.209139 21,18 L21,10 Z M19,12 L19,18 C19,19.1045695 18.1045695,20 17,20 L7,20 L6.85073766,19.9945143 C5.81587779,19.9181651 5,19.0543618 5,18 L5,12 L19,12 Z" id="Rectangle" fill="#000000" fill-rule="nonzero"></path>
        <path d="M17.6139991,2 L6.38600094,2 C5.13546725,2 4.01610509,2.7757185 3.5770134,3.94662968 L2.0770134,7.94662968 C1.95070171,8.28346085 1.88600094,8.64026415 1.88600094,9 C1.88600094,10.6568542 3.22914669,12 4.88600094,12 L19.1139991,12 C19.4737349,12 19.8305382,11.9352992 20.1673694,11.8089875 C21.7187304,11.2272272 22.504747,9.49799065 21.9229866,7.94662968 L20.4229866,3.94662968 C19.9838949,2.7757185 18.8645327,2 17.6139991,2 Z M17.6139991,4 C18.0308436,4 18.4039643,4.25857283 18.5503282,4.64887656 L20.0503282,8.64887656 C20.2442484,9.16599688 19.9822428,9.74240906 19.4651225,9.93632918 C19.3528454,9.97843307 19.233911,10 19.1139991,10 L4.88600094,10 C4.33371619,10 3.88600094,9.55228475 3.88600094,9 C3.88600094,8.88008805 3.90756786,8.76115362 3.94967176,8.64887656 L5.44967176,4.64887656 C5.59603566,4.25857283 5.96915638,4 6.38600094,4 L17.6139991,4 Z" id="Rectangle" fill="#000000" fill-rule="nonzero"></path>
        <path d="M13.0776252,2 L10.9223748,2 C9.43738557,2 8.17584976,3.08641877 7.95556578,4.55497864 L7.35556578,8.55497864 C7.33346917,8.70228936 7.32237484,8.85104125 7.32237484,9 C7.32237484,10.6568542 8.66552059,12 10.3223748,12 L13.6776252,12 C13.8265839,12 13.9753358,11.9889057 14.1226465,11.9668091 C15.7611699,11.7210305 16.8902127,10.193502 16.6444342,8.55497864 L16.0444342,4.55497864 C15.8241502,3.08641877 14.5626144,2 13.0776252,2 Z M13.0776252,4 C13.5726216,4 13.9931335,4.36213959 14.0665615,4.85165955 L14.6665615,8.85165955 C14.7484877,9.39783401 14.3721401,9.90701018 13.8259656,9.98893635 C13.776862,9.99630189 13.7272781,10 13.6776252,10 L10.3223748,10 C9.77009009,10 9.32237484,9.55228475 9.32237484,9 C9.32237484,8.95034708 9.32607295,8.90076312 9.33343849,8.85165955 L9.93343849,4.85165955 C10.0068665,4.36213959 10.4273784,4 10.9223748,4 L13.0776252,4 Z" id="Rectangle" fill="#000000" fill-rule="nonzero"></path>
        <path d="M12,14.2307692 C13.6568542,14.2307692 15,15.573915 15,17.2307692 L15,20.2307692 L13,20.2307692 L13,17.2307692 C13,16.6784845 12.5522847,16.2307692 12,16.2307692 C11.4477153,16.2307692 11,16.6784845 11,17.2307692 L11,20.2307692 L9,20.2307692 L9,17.2307692 C9,15.573915 10.3431458,14.2307692 12,14.2307692 Z" id="Rectangle-Copy-7" fill="#000000" fill-rule="nonzero"></path>
    </g>
</svg>