<?xml version="1.0" encoding="UTF-8"?>
<svg width="24px" height="24px" viewBox="0 0 24 24" version="1.1" xmlns="http://www.w3.org/2000/svg" xmlns:xlink="http://www.w3.org/1999/xlink">
    <title>1950Icons/Sun-1950@1x</title>
    <g id="1950Icons/Sun-1950" stroke="none" stroke-width="1" fill="none" fill-rule="evenodd">
        <g id="Group" transform="translate(3.000000, 3.000000)" stroke="#000000" stroke-width="2">
            <circle id="Oval" cx="9" cy="9" r="3"></circle>
            <line x1="9" y1="2" x2="9" y2="4.4408921e-16" id="Line-20" stroke-linecap="round"></line>
            <line x1="9" y1="18" x2="9" y2="16" id="Line-20" stroke-linecap="round"></line>
            <line x1="3" y1="16" x2="3" y2="14" id="Line-20" stroke-linecap="round" transform="translate(3.000000, 15.000000) rotate(45.000000) translate(-3.000000, -15.000000) "></line>
            <line x1="15" y1="4" x2="15" y2="2" id="Line-20" stroke-linecap="round" transform="translate(15.000000, 3.000000) rotate(45.000000) translate(-15.000000, -3.000000) "></line>
            <line x1="15" y1="16" x2="15" y2="14" id="Line-20" stroke-linecap="round" transform="translate(15.000000, 15.000000) scale(-1, 1) rotate(45.000000) translate(-15.000000, -15.000000) "></line>
            <line x1="3.35355339" y1="4.26776695" x2="3.35355339" y2="1.85355339" id="Line-20" stroke-linecap="round" transform="translate(3.353553, 3.353553) scale(-1, 1) rotate(45.000000) translate(-3.353553, -3.353553) "></line>
            <line x1="17" y1="10" x2="17" y2="8" id="Line-20" stroke-linecap="round" transform="translate(17.000000, 9.000000) rotate(90.000000) translate(-17.000000, -9.000000) "></line>
            <line x1="1" y1="10" x2="1" y2="8" id="Line-20" stroke-linecap="round" transform="translate(1.000000, 9.000000) rotate(90.000000) translate(-1.000000, -9.000000) "></line>
        </g>
    </g>
</svg>