<?xml version="1.0" encoding="UTF-8"?>
<svg width="24px" height="24px" viewBox="0 0 24 24" version="1.1" xmlns="http://www.w3.org/2000/svg" xmlns:xlink="http://www.w3.org/1999/xlink">
    <title>1950Icons/Timer-1950@1x</title>
    <g id="1950Icons/Timer-1950" stroke="none" stroke-width="1" fill="none" fill-rule="evenodd">
        <path d="M12,5 C16.418278,5 20,8.581722 20,13 C20,17.418278 16.418278,21 12,21 C7.581722,21 4,17.418278 4,13 C4,8.581722 7.581722,5 12,5 Z M12,7 C8.6862915,7 6,9.6862915 6,13 C6,16.3137085 8.6862915,19 12,19 C15.3137085,19 18,16.3137085 18,13 C18,9.6862915 15.3137085,7 12,7 Z" id="Oval" fill="#000000" fill-rule="nonzero"></path>
        <path d="M13.5,2.5 C14.0522847,2.5 14.5,2.94771525 14.5,3.5 C14.5,4.05228475 14.0522847,4.5 13.5,4.5 L9.5,4.5 C8.94771525,4.5 8.5,4.05228475 8.5,3.5 C8.5,2.94771525 8.94771525,2.5 9.5,2.5 L13.5,2.5 Z" id="Line-3" fill="#000000" fill-rule="nonzero"></path>
        <polygon id="Line-4" fill="#000000" fill-rule="nonzero" points="12.5 2.5 12.5 6.5 10.5 6.5 10.5 2.5"></polygon>
        <path d="M11.5,8.5 C12.0522847,8.5 12.5,8.94771525 12.5,9.5 L12.5,13.5 C12.5,14.0522847 12.0522847,14.5 11.5,14.5 C10.9477153,14.5 10.5,14.0522847 10.5,13.5 L10.5,9.5 C10.5,8.94771525 10.9477153,8.5 11.5,8.5 Z" id="Line" fill="#000000" fill-rule="nonzero"></path>
        <path d="M15.5,12.5 C16.0522847,12.5 16.5,12.9477153 16.5,13.5 C16.5,14.0522847 16.0522847,14.5 15.5,14.5 L11.5,14.5 C10.9477153,14.5 10.5,14.0522847 10.5,13.5 C10.5,12.9477153 10.9477153,12.5 11.5,12.5 L15.5,12.5 Z" id="Line-2" fill="#000000" fill-rule="nonzero"></path>
    </g>
</svg>