<?xml version="1.0" encoding="UTF-8"?>
<svg width="24px" height="24px" viewBox="0 0 24 24" version="1.1" xmlns="http://www.w3.org/2000/svg" xmlns:xlink="http://www.w3.org/1999/xlink">
    <title>1950Icons/User-1950@1x</title>
    <g id="1950Icons/User-1950" stroke="none" stroke-width="1" fill="none" fill-rule="evenodd">
        <g id="Group-3" transform="translate(4.000000, 3.000000)" fill="#000000" fill-rule="nonzero">
            <g id="Group">
                <path d="M8,10 C12.418278,10 16,13.581722 16,18 C16,18.5522847 15.5522847,19 15,19 C14.4477153,19 14,18.5522847 14,18 C14,14.6862915 11.3137085,12 8,12 C4.6862915,12 2,14.6862915 2,18 C2,18.5522847 1.55228475,19 1,19 C0.44771525,19 0,18.5522847 0,18 C0,13.581722 3.581722,10 8,10 Z" id="Oval"></path>
                <path d="M8,-1 C5.23857625,-1 3,1.23857625 3,4 C3,6.76142375 5.23857625,9 8,9 C10.7614237,9 13,6.76142375 13,4 C13,1.23857625 10.7614237,-1 8,-1 Z M8,1 C9.65685425,1 11,2.34314575 11,4 C11,5.65685425 9.65685425,7 8,7 C6.34314575,7 5,5.65685425 5,4 C5,2.34314575 6.34314575,1 8,1 Z" id="Oval"></path>
            </g>
        </g>
    </g>
</svg>