<?xml version="1.0" encoding="UTF-8"?>
<svg width="24px" height="24px" viewBox="0 0 24 24" version="1.1" xmlns="http://www.w3.org/2000/svg" xmlns:xlink="http://www.w3.org/1999/xlink">
    <title>1950Icons/Video-1950@1x</title>
    <g id="1950Icons/Video-1950" stroke="none" stroke-width="1" fill="none" fill-rule="evenodd">
        <path d="M16,4 C17.1045695,4 18,4.8954305 18,6 L18,17 C18,18.1045695 17.1045695,19 16,19 L4,19 C2.8954305,19 2,18.1045695 2,17 L2,6 C2,4.8954305 2.8954305,4 4,4 L16,4 Z M16,6 L4,6 L4,17 L16,17 L16,6 Z" id="Rectangle" fill="#000000" fill-rule="nonzero"></path>
        <path d="M21.9260924,7.10991643 C21.9749003,7.22971777 22,7.35785111 22,7.48721331 L22,15.5127867 C22,16.0650714 21.5522847,16.5127867 21,16.5127867 C20.8706378,16.5127867 20.7425045,16.487687 20.6227031,16.438879 L16,14.5555556 L16,8.44444444 L20.6227031,6.56112095 C21.1341698,6.35274564 21.717717,6.59844974 21.9260924,7.10991643 Z M20,8.974 L18,9.788 L18,13.211 L20,14.025 L20,8.974 Z" id="Rectangle" fill="#000000" fill-rule="nonzero"></path>
    </g>
</svg>