<?xml version="1.0" encoding="UTF-8"?>
<svg width="24px" height="24px" viewBox="0 0 24 24" version="1.1" xmlns="http://www.w3.org/2000/svg" xmlns:xlink="http://www.w3.org/1999/xlink">
    <title>1950Icons/VISIT-www.1950labs.com@1x</title>
    <defs>
        <polygon id="path-1" points="0 0 11.8881503 0 11.8881503 20 0 20"></polygon>
        <polygon id="path-3" points="0 0 2.80853682 0 2.80853682 2.87953357 0 2.87953357"></polygon>
    </defs>
    <g id="1950Icons/VISIT-www.1950labs.com" stroke="none" stroke-width="1" fill="none" fill-rule="evenodd">
        <g id="Group-41" transform="translate(5.000000, 2.000000)">
            <g id="Group-3" transform="translate(1.111850, 0.000000)">
                <mask id="mask-2" fill="white">
                    <use xlink:href="#path-1"></use>
                </mask>
                <g id="Clip-2"></g>
                <path d="M10.6393877,10.8470083 C10.1153744,10.2619138 9.69049141,9.56526749 9.59417034,8.76093508 C9.53156165,8.42738425 9.79216365,8.16507193 9.89905329,7.87321496 C10.056779,7.91891253 10.2170466,7.9578452 10.3759764,8.00354277 C10.2549061,8.07091562 10.0111603,8.20676579 9.88982252,8.27400058 C10.3981837,8.56848067 10.8739028,8.91956501 11.3013275,9.3298767 C11.3339697,9.4858835 11.3379831,9.64727461 11.3509596,9.80590453 C11.0082172,10.0682169 10.8100901,10.4556107 10.6393877,10.8470083 M11.6233342,8.28200801 C11.6467456,7.51674632 11.6051402,6.75148464 11.5504245,5.98884608 C11.4331001,5.49928845 11.2127657,5.0297494 11.2232004,4.5134083 C11.24407,4.01570519 10.9456085,3.60415096 10.6902239,3.21413396 C10.3187188,2.68412501 10.1936352,2.03055315 9.91604325,1.45346604 C9.70614359,0.954520397 9.183468,0.724513909 8.73918706,0.50389544 C6.97838439,-0.148433885 5.01557502,-0.155060723 3.23269877,0.412500305 C2.59912018,0.627734468 2.03095964,1.0136097 1.55912018,1.49640243 C1.03657837,1.98747871 0.481260643,2.5105847 0.24554158,3.21813767 C-0.115662434,5.09436106 0.00299977375,7.01503949 0.0942372319,8.91141952 C0.563534891,9.08095611 1.01303322,9.29480968 1.4744379,9.4804992 C2.02841783,9.0891016 1.92286599,8.37216061 1.93972218,7.77491687 C2.14828405,7.23565796 2.49758171,6.7728838 2.77129409,6.26855385 C2.67095964,5.9914692 2.55483924,5.72114945 2.4492874,5.44682599 C2.51978907,5.29219978 2.59015696,5.13743551 2.65651148,4.98142871 C2.49356834,4.87650378 2.32808339,4.77434003 2.16393623,4.67079569 C2.26948807,4.20940213 2.34641114,3.6955461 2.72955496,3.37814819 C3.16875228,2.89397487 3.86213021,3.04197424 4.43176232,2.94381421 C5.0924981,2.63166254 5.82748138,2.68812872 6.53517369,2.67473699 C7.04875228,2.62365512 7.4266787,3.0579891 7.86988941,3.24630173 C8.31938773,3.2973836 8.78079242,3.12936566 9.22641114,3.26121212 C9.89116031,3.54906537 10.4217289,4.09370859 10.8060767,4.71235149 C10.8060767,5.13343179 10.7892205,5.56251953 10.9794546,5.95253653 C10.5728994,5.93224184 10.1571135,5.91760758 9.78560847,6.11655076 C9.48728071,6.27531875 9.1692874,6.09901726 8.87336767,6.03053993 C8.82908673,6.45010159 8.64126064,6.8174769 8.30895295,7.06750196 C8.92942118,7.65397708 8.9866787,8.55246581 9.41557502,9.26250385 C9.19269877,9.46020451 8.9841369,9.68096103 8.73651148,9.84635585 C8.39243121,9.91883689 8.03269877,9.66342753 7.69784927,9.84097155 C7.43189609,9.99559776 7.16594292,10.2242237 7.09049141,10.5430022 C7.43323389,10.8376203 7.88019041,10.4434615 8.25811683,10.3937603 C8.6570466,10.7097776 9.08179576,11.0245524 9.28527402,11.5194943 C9.35818372,11.7871909 9.63845128,11.7038032 9.84299977,11.7414933 C9.70748138,11.878586 9.573167,12.0184399 9.44032419,12.1582938 C9.26172887,12.037354 9.08179576,11.9162762 8.90213021,11.7992021 C8.75738104,11.9848916 8.43671215,12.1368947 8.4744379,12.4058338 C8.72875228,12.5873816 9.08313355,12.5444452 9.37517369,12.6479895 C9.3724981,12.7299966 9.36728071,12.8926303 9.3647389,12.9747754 C8.73009007,13.1253979 8.05356834,13.06479 7.44353489,13.3460164 C7.4854078,13.426781 7.56741449,13.588034 7.60781583,13.6687986 C8.18266533,13.7884959 8.73784927,13.9861965 9.29035763,14.1879009 C9.5551068,14.2835759 9.68139442,14.5605224 9.83256499,14.7825215 C9.26306666,15.0420726 8.75858506,15.4159367 8.23470546,15.7562525 C7.69651148,16.1462695 7.02199643,15.9043899 6.42574225,16.1073368 C5.99791616,16.2528511 5.79363523,16.4132758 5.53223054,16.2306236 C5.53223054,16.2306236 5.36794961,16.6913269 5.30922051,17.1970374 C5.62199643,17.4808869 5.99042452,17.625849 6.18320044,18.0374032 C6.31229743,18.3238759 6.53918706,18.5363489 6.7827991,18.7192772 C6.7866787,18.7798852 6.79323389,18.900825 6.79711349,18.9626754 C6.3827991,19.1551298 6.02681248,19.4576174 5.87577569,19.9108654 C7.29503991,20.1813233 8.74560847,19.8006943 10.0579831,19.2479056 C9.56661181,17.7858595 10.3852071,16.3602611 10.7358426,14.9720767 C10.9430667,13.9283498 11.2779162,12.9183093 11.5124312,11.8812092 C11.6260098,11.3487152 11.8957088,10.8483889 11.8866118,10.2915965 C11.9126988,9.60820388 11.5999229,8.96664316 11.6233342,8.28200801" id="Fill-1" fill="#231F20" mask="url(#mask-2)"></path>
            </g>
            <path d="M9.58504348,5.88389354 C9.51347157,5.88527413 9.37126421,5.88789725 9.29969231,5.88927785 C9.31788629,6.0937434 9.32176589,6.31698499 9.48604682,6.46222318 C9.52243478,6.26990683 9.55387291,6.07759048 9.58504348,5.88389354" id="Fill-4" fill="#231F20"></path>
            <path d="M7.2612709,7.82479763 C7.07103679,7.96865523 6.89244147,8.12866574 6.72040134,8.29544116 C7.1387291,8.42728761 7.64842809,8.37896692 7.95197324,8.02111769 C8.22180602,7.69833548 8.64147157,7.54508986 8.87598662,7.18724063 C8.91919732,6.85230921 8.95692308,6.51199349 8.91919732,6.17443895 C8.50073579,6.17167777 8.0941806,6.28599072 7.67571906,6.28737131 C7.3316388,6.31829655 6.93939799,6.2955168 6.67090301,6.56045224 C6.24869565,6.93693945 5.78595318,7.26262091 5.3858194,7.66602965 C5.27772575,7.56648902 5.16561873,7.4737133 5.04829431,7.38756441 C4.87759197,7.36878837 4.77458194,7.52755635 4.65070234,7.6161903 C5.00655518,7.63910812 5.34274247,7.71586899 5.54488294,8.0508004 C5.81993311,7.87726009 6.1012709,7.71048468 6.39331104,7.56786961 C6.69311037,7.59879486 6.96802676,7.75079794 7.2612709,7.82479763" id="Fill-6" fill="#231F20"></path>
            <path d="M0.641819398,9.74805776 C0.747237458,9.40953681 1.10442809,9.36742878 1.36248829,9.22495177 C1.18228763,9.10470228 0.980414716,9.05099728 0.7069699,9.1549558 C0.27419398,9.36204447 0.227237458,9.91483318 0.163424749,10.3412978 C0.415331104,10.2771003 0.536401338,10.0865787 0.641819398,9.74805776" id="Fill-8" fill="#231F20"></path>
            <g id="Group-12" transform="translate(0.000000, 10.789093)">
                <mask id="mask-4" fill="white">
                    <use xlink:href="#path-3"></use>
                </mask>
                <g id="Clip-11"></g>
                <path d="M2.60461538,1.68266451 C2.57010033,1.83494372 2.58535117,2.25547179 2.12782609,2.40181445 C1.80327759,2.51074309 1.51377926,2.37406457 1.24006689,2.11299478 C0.674314381,1.47060571 0.41277592,0.825869635 0.114314381,0 L-6.68896321e-05,0.0158767984 C0.223478261,0.851410571 0.541070234,1.38887471 0.815451505,1.89707032 C1.03846154,2.26196056 1.16849498,2.55312724 1.61879599,2.79611129 C2.04996656,3.02901702 2.61799331,2.74213017 2.80822742,2.33195654 C2.81799331,2.33734084 2.59324415,1.7157987 2.60461538,1.68266451" id="Fill-10" fill="#231F20" mask="url(#mask-4)"></path>
            </g>
            <path d="M2.11744482,11.0325184 C1.96279599,11.1357866 2.14125753,11.2545174 1.72747826,11.4185317 C1.21670903,11.6207883 1.44373244,12.0736222 1.55744482,12.3859119 C1.93523746,12.3768 2.25028763,11.5194529 2.11744482,11.0325184" id="Fill-13" fill="#231F20"></path>
            <path d="M7.71487625,12.5550757 C8.24531104,12.5255311 8.90751839,12.4397964 9.43674916,12.3779459 C9.43541137,12.3067074 9.42711706,12.0595816 9.42711706,11.9871005 C9.24985953,11.9560372 8.93601338,11.9364328 8.76009365,12.0184399 C8.39768562,12.1650587 7.77293645,12.4190875 7.71487625,12.5550757" id="Fill-15" fill="#231F20"></path>
            <path d="M2.85557191,13.9333751 L2.78587291,13.98211 L2.62774582,13.7406446 L2.69731104,13.6919097 L2.75269565,13.7764019 L2.92727759,13.6543576 C2.92032107,13.6542196 2.91202676,13.6515964 2.90212709,13.6473166 C2.89222742,13.6428987 2.88219398,13.6377905 2.87202676,13.6314398 C2.86185953,13.6255033 2.85222742,13.6184623 2.84313043,13.6104548 C2.83416722,13.6025855 2.82707692,13.5949922 2.82212709,13.587537 L2.89410033,13.5371454 C2.89878261,13.5444626 2.90680936,13.5515036 2.91791304,13.5586827 C2.9291505,13.5661379 2.94105686,13.5724886 2.95363211,13.5780109 C2.96634114,13.5836714 2.97797993,13.5880893 2.98881605,13.5911266 C2.99951839,13.59444 3.00727759,13.5958206 3.01209365,13.5952683 L3.06533779,13.6769993 L2.80620736,13.8578568 L2.85557191,13.9333751 Z" id="Fill-17" fill="#231F20"></path>
            <path d="M3.19037954,13.9727496 C3.18237211,13.9625332 3.17312215,13.9543877 3.16221548,13.9484512 C3.15144687,13.9426527 3.13984991,13.9392012 3.12756264,13.9378206 C3.11527538,13.9361639 3.10298812,13.9371303 3.0905628,13.9404437 C3.07827554,13.943481 3.06695469,13.9491415 3.05673832,13.9571489 C3.04652194,13.9647421 3.03851451,13.9742682 3.03271603,13.9850368 C3.02677949,13.9959435 3.02305189,14.0072643 3.02125712,14.0191374 C3.01960042,14.0310105 3.02042358,14.0430217 3.02360413,14.0550328 C3.02677949,14.0670439 3.03230185,14.0782267 3.04030928,14.088305 C3.04817865,14.0986595 3.05742861,14.106805 3.06833528,14.1130176 C3.07896584,14.1193683 3.09042474,14.1230959 3.10229783,14.1244765 C3.11430897,14.1257191 3.12632011,14.1250288 3.1381932,14.1221295 C3.1503424,14.1193683 3.16138713,14.1137079 3.1716035,14.1059766 C3.18181988,14.0979692 3.19010342,14.0885812 3.19631608,14.0773984 C3.20252874,14.0662156 3.2063944,14.0547567 3.20791305,14.0426075 C3.20956976,14.0304583 3.20887946,14.0183091 3.20611828,14.0061599 C3.20363322,13.9941487 3.19824891,13.9829659 3.19037954,13.9727496 M3.00068632,13.8841156 C3.02042877,13.8690672 3.04168987,13.8585747 3.06460769,13.8530523 C3.0875255,13.8473919 3.11030526,13.8464255 3.13308501,13.8497389 C3.15586476,13.8527762 3.17781616,13.8607836 3.19893921,13.8732089 C3.21992419,13.8856343 3.23856217,13.9023394 3.25471509,13.9233244 C3.2722486,13.945828 3.28384556,13.9698503 3.28978211,13.9945629 C3.29544253,14.0194135 3.29544253,14.0444022 3.28950599,14.069529 C3.28356945,14.0946558 3.27169636,14.1196445 3.25416285,14.144219 C3.23662935,14.1690696 3.21329736,14.1926777 3.18402882,14.2150433 C3.1473051,14.2433454 3.11196196,14.2646065 3.07813748,14.2791027 C3.04403688,14.2934609 3.01242134,14.3014683 2.98287669,14.3027109 C2.95319398,14.3038153 2.92627245,14.2987071 2.90142181,14.2869721 C2.87670923,14.2752371 2.85503395,14.2574275 2.83667209,14.2335432 C2.81706769,14.2081404 2.80450431,14.1803905 2.79870583,14.1502936 C2.79318346,14.1201967 2.79497823,14.0900998 2.80395208,14.0593126 L2.88540695,14.0664917 C2.87808982,14.0865103 2.87601893,14.1070811 2.87905623,14.1272377 C2.88236965,14.1480846 2.89037708,14.1668607 2.90363076,14.183842 C2.92309709,14.2092448 2.94863803,14.2218082 2.98039163,14.2211179 C3.01200716,14.2207037 3.04652194,14.2066217 3.0837979,14.1790099 C3.06433157,14.1820472 3.04486523,14.1791479 3.02553696,14.1704502 C3.00620868,14.1617525 2.98908935,14.1478085 2.97417897,14.1286183 C2.95857829,14.1083236 2.94780968,14.0872006 2.9413209,14.064835 C2.93510824,14.0424694 2.93331347,14.020518 2.93566047,13.9985666 C2.93814554,13.9767533 2.94491043,13.9559064 2.9558171,13.9360258 C2.96672377,13.9160073 2.98163416,13.8988879 3.00068632,13.8841156" id="Fill-19" fill="#231F20"></path>
            <path d="M3.36143144,14.3584729 C3.37681605,14.3765587 3.38805351,14.395887 3.39567893,14.4164578 C3.40303679,14.4371666 3.40638127,14.4578755 3.40531104,14.4783082 C3.40437458,14.4991552 3.39929097,14.5193118 3.3900602,14.5387781 C3.38082943,14.5582445 3.36731773,14.5761922 3.34965886,14.5923451 C3.33079599,14.6093263 3.3107291,14.6214755 3.28945819,14.6282404 C3.26818729,14.6351434 3.24678261,14.6373523 3.22484281,14.6347292 C3.20317057,14.6321061 3.18203344,14.6250651 3.16129766,14.6134681 C3.14042809,14.601595 3.12143144,14.5857182 3.10417391,14.5655616 C3.0803612,14.5376737 3.06470903,14.5071626 3.05735117,14.4748568 C3.04999331,14.4421368 3.0513311,14.4112115 3.06136455,14.3818049 L3.13855518,14.3852564 C3.13360535,14.4074839 3.13347157,14.4299876 3.13828763,14.4523531 C3.14310368,14.4747187 3.15246823,14.4937709 3.16638127,14.5101999 C3.1829699,14.5295282 3.20210033,14.5401587 3.22404013,14.5422296 C3.24584615,14.5445766 3.2661806,14.5369834 3.28504348,14.5200021 C3.3029699,14.5035731 3.31286957,14.4842448 3.3139398,14.4627076 C3.31514381,14.4408942 3.30805351,14.4208757 3.2926689,14.402928 C3.28250167,14.3911929 3.27046154,14.3824952 3.25668227,14.3769729 C3.24250167,14.3714505 3.22858863,14.3696557 3.21414047,14.3718647 L3.16049498,14.3089097 C3.16156522,14.3079433 3.16597993,14.3050441 3.17400669,14.30035 C3.18203344,14.295518 3.19220067,14.2894434 3.20477592,14.2818501 C3.21721739,14.2743949 3.23099666,14.2659733 3.24624749,14.2567234 C3.26149833,14.2474734 3.27701672,14.2378093 3.29307023,14.2286974 C3.33066221,14.2059176 3.37253512,14.1803767 3.41895652,14.1523507 L3.57989298,14.3408014 L3.51621405,14.3987862 L3.39982609,14.2623838 L3.30350502,14.3223014 C3.31179933,14.3224395 3.32076254,14.3254768 3.33079599,14.3315514 C3.34082943,14.3373499 3.35099666,14.3463237 3.36143144,14.3584729" id="Fill-21" fill="#231F20"></path>
            <path d="M3.68861585,14.7305975 C3.70214564,14.7170677 3.71305231,14.7031237 3.72105974,14.6884894 C3.72948135,14.6741313 3.73486565,14.6600493 3.73735071,14.6465195 C3.73983578,14.6327136 3.7394216,14.6198741 3.73624624,14.6078629 C3.73293282,14.5958518 3.72672016,14.5852212 3.71760826,14.5762474 C3.70822024,14.5667213 3.69717551,14.5605086 3.68530243,14.5570572 C3.67329128,14.5541579 3.66045179,14.5538818 3.64664588,14.5563669 C3.63297802,14.5588519 3.61889599,14.5643743 3.6046759,14.5726578 C3.5901797,14.5810794 3.57637378,14.5919861 3.56284399,14.605654 C3.5493142,14.6190457 3.53854559,14.6331277 3.5304001,14.6472098 C3.52239267,14.6615679 3.51714642,14.6755119 3.51466136,14.6891797 C3.5121763,14.7029856 3.51259047,14.7159632 3.51576583,14.7276982 C3.51894119,14.7397094 3.52529191,14.750616 3.53481799,14.7600041 C3.54406795,14.7689779 3.5546985,14.7753286 3.56670965,14.778504 C3.57872079,14.7815413 3.59156029,14.7819555 3.60522814,14.7794704 C3.61889599,14.7767092 3.63297802,14.7713249 3.64706005,14.7630414 C3.6614182,14.755172 3.67508605,14.7442653 3.68861585,14.7305975 M3.75736929,14.7989367 C3.73514177,14.8213023 3.71125754,14.8385597 3.68599272,14.850847 C3.66058985,14.8631342 3.63518697,14.8701752 3.60992215,14.8723842 C3.58451927,14.8744551 3.55994475,14.8715558 3.53619858,14.8629962 C3.51259047,14.8545746 3.49132937,14.8411828 3.47282945,14.8226829 C3.45363923,14.8036307 3.43983332,14.7825077 3.43154977,14.7590377 C3.42326622,14.7355676 3.42009087,14.7109931 3.42202369,14.6857283 C3.42395652,14.6603254 3.43099754,14.6350606 3.44314674,14.6096577 C3.45529594,14.5839787 3.47241527,14.5603706 3.49464279,14.5377289 C3.51687031,14.5153633 3.54075453,14.4979679 3.56601935,14.4858187 C3.59142223,14.4735314 3.61668705,14.4663523 3.64208992,14.4642814 C3.6674928,14.4622105 3.69192927,14.4651098 3.71567543,14.4731172 C3.7394216,14.4809866 3.76068271,14.4945164 3.77987292,14.5135685 C3.7985109,14.5320685 3.8120407,14.5533296 3.82032424,14.5770757 C3.82874585,14.60096 3.83192121,14.6255345 3.82998838,14.6509374 C3.82805555,14.6763402 3.82101454,14.7016051 3.8090034,14.7272841 C3.79685419,14.7525489 3.7795968,14.7764331 3.75736929,14.7989367" id="Fill-23" fill="#231F20"></path>
            <path d="M4.0073311,14.6170715 L4.07689632,14.6811309 L3.81629431,14.9819617 C3.80746488,14.9923161 3.80291639,15.0025325 3.80278261,15.0127489 C3.80278261,15.0229653 3.80719732,15.0322152 3.81602676,15.0404988 C3.82030769,15.0443644 3.82552508,15.0478159 3.83181271,15.0511293 C3.83796656,15.0543047 3.84425418,15.0567897 3.85054181,15.0588606 L3.81268227,15.1220917 C3.79930435,15.118088 3.78525753,15.1115992 3.77067559,15.1027634 C3.75609365,15.0935135 3.74378595,15.0845396 3.73375251,15.0751516 C3.71194649,15.0552711 3.70030769,15.0337339 3.69870234,15.010678 C3.69723077,14.9877602 3.70592642,14.9651185 3.72519064,14.943029 L4.0073311,14.6170715 Z" id="Fill-25" fill="#231F20"></path>
            <path d="M3.98181317,15.1993772 C3.9945146,15.2094555 4.00818246,15.2169107 4.0232309,15.2217428 C4.03814129,15.2262987 4.05180914,15.2275413 4.06423446,15.2251943 C4.07735007,15.2253323 4.08742839,15.2217428 4.09364105,15.2138734 L4.12070064,15.180187 C4.11448798,15.1696945 4.10689473,15.159202 4.098197,15.1488476 C4.08936122,15.1383551 4.08011126,15.1291051 4.07044712,15.1215119 C4.05111884,15.1057731 4.03165251,15.0974896 4.01246229,15.096247 C3.99299595,15.0950045 3.97794751,15.1012172 3.9671789,15.1144708 C3.95682447,15.1273103 3.95323493,15.1416685 3.95599611,15.1578214 C3.95903341,15.1741124 3.96759308,15.1879183 3.98181317,15.1993772 M3.91637314,15.2367912 C3.90229111,15.2254704 3.89097027,15.2126309 3.88227254,15.1979966 C3.87385094,15.1835004 3.86846663,15.1681758 3.86625769,15.1527132 C3.86404874,15.1371125 3.86487709,15.121788 3.86901887,15.1064634 C3.87288452,15.0911389 3.88047777,15.0769188 3.89124639,15.0636651 C3.90229111,15.0497211 3.91568285,15.0395047 3.93128353,15.0326018 C3.94688421,15.0258369 3.9634513,15.0230757 3.98112287,15.0236279 C3.99865638,15.0240421 4.01701824,15.02846 4.0360704,15.0359152 C4.0549845,15.0437846 4.07376054,15.0548293 4.09198434,15.0696016 C4.10509996,15.0800941 4.11697304,15.091553 4.12760359,15.1039784 C4.13823415,15.1161276 4.14665575,15.1281387 4.15314453,15.1401498 L4.16667432,15.1233066 C4.182275,15.1039784 4.18876378,15.084512 4.18627872,15.0653218 C4.18365559,15.0459935 4.17150639,15.0276317 4.14996917,15.0102362 C4.13423043,14.9976728 4.11683498,14.9881468 4.09736865,14.981658 C4.07790231,14.9753073 4.05608897,14.9711655 4.03165251,14.9693707 L4.04711513,14.9032404 C4.10482384,14.9087628 4.15549153,14.9289194 4.19898016,14.9639864 C4.24122625,14.998087 4.26566271,15.0349488 4.27215149,15.0742956 C4.27877833,15.1136425 4.26635301,15.1529893 4.23473747,15.1921981 L4.16129002,15.2831791 C4.15507736,15.2910485 4.15176394,15.2976753 4.151902,15.3033357 C4.15204006,15.3088581 4.15507736,15.3145185 4.16129002,15.3200409 L4.10979397,15.3835481 C4.09502164,15.3759548 4.08287244,15.3684996 4.07362248,15.3610444 C4.05940239,15.3495855 4.0512569,15.3375744 4.04863378,15.3251491 C4.04614871,15.3125857 4.04808154,15.3004365 4.05470838,15.2884253 L4.06602923,15.2710299 C4.03924576,15.2775187 4.01287647,15.2777948 3.98705941,15.2715821 C3.96124236,15.2655075 3.93763425,15.2540486 3.91637314,15.2367912" id="Fill-27" fill="#231F20"></path>
            <path d="M4.36510936,15.4811559 C4.37767274,15.4897155 4.39092642,15.495514 4.40500845,15.4981371 C4.41909048,15.5006222 4.43248221,15.5003461 4.44587394,15.4971707 C4.45912762,15.4942715 4.47155294,15.4887491 4.48328797,15.4804656 C4.49502299,15.4725962 4.50551548,15.4619656 4.51421321,15.4495403 C4.52304899,15.437115 4.52926165,15.4235852 4.53340342,15.4095032 C4.53740714,15.3952831 4.53878773,15.3813391 4.5375452,15.3678093 C4.53630267,15.3540034 4.53257507,15.3411639 4.52636241,15.3292908 C4.52014975,15.3172797 4.51103785,15.3072014 4.49930282,15.2991939 C4.48163126,15.2867686 4.46175074,15.2813843 4.43979934,15.2831791 C4.41784794,15.2851119 4.39713908,15.2920149 4.37794886,15.3036118 L4.32659087,15.3771973 C4.32382969,15.3868615 4.32286327,15.3968017 4.32382969,15.4068801 C4.32465804,15.4168203 4.32700505,15.4263464 4.33045652,15.4354583 C4.33404606,15.4445702 4.33887813,15.4532679 4.34495273,15.4612753 C4.35088927,15.4694208 4.35765417,15.4759096 4.36510936,15.4811559 M4.3399826,15.5634391 C4.31651255,15.5471481 4.2991171,15.5269915 4.28821043,15.5036595 C4.27702764,15.4800514 4.27274781,15.4554769 4.27509482,15.4296598 L4.23754274,15.4832267 L4.1687893,15.4350441 L4.46879176,15.0055422 L4.54762351,15.0604897 L4.42530314,15.2359629 C4.44932542,15.2247801 4.474038,15.2202241 4.49916476,15.222295 C4.52415346,15.2243659 4.54872799,15.2337539 4.57261221,15.2504591 C4.59263079,15.2645411 4.60781729,15.2813843 4.61844784,15.3015409 C4.62880227,15.3216976 4.63501493,15.3432348 4.6368097,15.3662907 C4.63846641,15.3890704 4.63584329,15.4124024 4.62866421,15.4367008 C4.62148514,15.4608612 4.61030235,15.483779 4.59525391,15.5051781 C4.57965323,15.5276818 4.56156748,15.5457675 4.54072056,15.5599876 C4.52014975,15.5742077 4.49833641,15.5838718 4.4754186,15.58898 C4.45236272,15.5943643 4.42930685,15.5950546 4.4058368,15.5910509 C4.38236675,15.5869091 4.36041535,15.5776592 4.3399826,15.5634391" id="Fill-29" fill="#231F20"></path>
            <path d="M4.65610702,15.7783005 C4.63002007,15.7618715 4.60701003,15.7415768 4.58694314,15.7174164 C4.56701003,15.693118 4.55296321,15.667301 4.54440134,15.6402414 L4.60446823,15.6075214 C4.61530435,15.6332004 4.62761204,15.6554279 4.64152508,15.6739278 C4.65530435,15.6922897 4.6710903,15.707062 4.68901672,15.7182448 C4.7046689,15.728185 4.71911706,15.7330171 4.73182609,15.732741 C4.74453512,15.7321888 4.754301,15.7262522 4.76098997,15.7146552 C4.76781271,15.7033344 4.76741137,15.6914613 4.75978595,15.6795882 C4.75229431,15.667439 4.73838127,15.6504578 4.71831438,15.6283683 C4.70145819,15.6098684 4.68741137,15.5935774 4.67630769,15.5793573 C4.66507023,15.5649992 4.65731104,15.5518835 4.65262876,15.5395963 C4.64781271,15.5274471 4.64607358,15.5157121 4.64727759,15.5043912 C4.64848161,15.4932084 4.65276254,15.4814734 4.65985284,15.4690481 C4.66948495,15.4527571 4.68125753,15.4399176 4.69503679,15.4306676 C4.70908361,15.4214177 4.72420067,15.4156192 4.74065552,15.4134103 C4.75724415,15.4112013 4.77436789,15.4123058 4.79202676,15.4167237 C4.80968562,15.4210035 4.82747826,15.4288729 4.84486957,15.4397795 C4.86828094,15.4541377 4.88808027,15.4713951 4.90426756,15.4914137 C4.92072241,15.511018 4.93276254,15.5340739 4.94065552,15.5603052 L4.87938462,15.5899879 C4.87068896,15.5677603 4.86065552,15.5491224 4.8491505,15.5339359 C4.83764548,15.5188874 4.8246689,15.5067382 4.8098194,15.4977644 C4.79644147,15.4892047 4.78346488,15.4849249 4.77088963,15.4849249 C4.75858194,15.4849249 4.74841472,15.4912756 4.74105686,15.5041151 C4.73771237,15.5097755 4.73610702,15.5151598 4.73610702,15.520268 C4.73610702,15.5251001 4.7375786,15.5306224 4.74065552,15.5364209 C4.74359866,15.5423575 4.74828094,15.5491224 4.75456856,15.5567156 C4.76072241,15.5640327 4.76874916,15.5728685 4.77851505,15.5829468 C4.79644147,15.601999 4.81142475,15.6193945 4.8233311,15.634581 C4.83523746,15.6497675 4.84393311,15.6642637 4.8491505,15.6776554 C4.85450167,15.6911852 4.85677592,15.7041627 4.85557191,15.7165881 C4.85450167,15.7291515 4.84995318,15.7419909 4.84219398,15.7555207 C4.82359866,15.7869982 4.79764548,15.8046698 4.76433445,15.8088116 C4.73102341,15.8128153 4.69490301,15.8025989 4.65610702,15.7783005" id="Fill-31" fill="#231F20"></path>
            <polygon id="Fill-33" fill="#231F20" points="4.84632776 15.8848131 4.89475585 15.7942463 4.96177926 15.8324887 4.91335117 15.9229174"></polygon>
            <path d="M5.05064883,15.7885445 C5.06202007,15.7647983 5.07660201,15.7446417 5.09479599,15.7276604 C5.11272241,15.7106791 5.13292308,15.6981158 5.15553177,15.6898322 C5.17814047,15.6818248 5.20235452,15.6782352 5.22804013,15.6796158 C5.25372575,15.6811345 5.27994649,15.6887277 5.30643478,15.7022575 C5.34228763,15.7206194 5.36877592,15.7440894 5.386301,15.7729438 C5.40395987,15.8016601 5.41265552,15.8320331 5.41265552,15.8640628 L5.31874247,15.848186 C5.31767224,15.831895 5.31285619,15.817675 5.30429431,15.8049735 C5.296,15.7925482 5.28476254,15.7824699 5.27058194,15.7752908 C5.25854181,15.7689401 5.24610033,15.7656267 5.2333913,15.7653506 C5.22068227,15.7650744 5.20837458,15.7672834 5.19646823,15.7721154 C5.18442809,15.7769475 5.17332441,15.7845408 5.16302341,15.7947571 C5.15258863,15.8048355 5.1437592,15.8173988 5.1366689,15.8324473 C5.12931104,15.8474957 5.12516388,15.8624061 5.12369231,15.8771784 C5.12222074,15.8918127 5.12329097,15.9058947 5.12650167,15.9187342 C5.12997993,15.9315737 5.13559866,15.9433088 5.14362542,15.9535251 C5.15165217,15.9637415 5.16141806,15.971887 5.17305686,15.9778235 C5.18804013,15.9854168 5.20382609,15.9885921 5.22014716,15.9874877 C5.23660201,15.9862451 5.24984615,15.981275 5.26014716,15.9727153 L5.32944482,16.0403643 C5.30589967,16.0603829 5.27713712,16.0719798 5.24355853,16.0748791 C5.20997993,16.0780544 5.1753311,16.0703231 5.13907692,16.0518232 C5.11245485,16.0381554 5.09091639,16.0213122 5.07419398,16.0007413 C5.05760535,15.9807228 5.045699,15.9586333 5.03847492,15.9348871 C5.03111706,15.911279 5.02870903,15.8865665 5.0308495,15.8610255 C5.03285619,15.8357607 5.03941137,15.8114623 5.05064883,15.7885445" id="Fill-35" fill="#231F20"></path>
            <path d="M5.49333443,16.0062913 C5.48698371,16.0216159 5.48353223,16.0368024 5.48284194,16.0511605 C5.48215164,16.0657948 5.48408447,16.0793246 5.4883643,16.092026 C5.49264413,16.1047275 5.49927097,16.1159103 5.50810675,16.1255744 C5.5170806,16.1352385 5.52798727,16.1426937 5.54068871,16.14794 C5.55366626,16.1536004 5.56650576,16.1559474 5.57975944,16.1552571 C5.59287505,16.154981 5.60543843,16.1518056 5.61744957,16.1458691 C5.62946072,16.1400706 5.64050545,16.1317871 5.65058376,16.1208804 C5.66052402,16.1099737 5.66880757,16.0968581 5.67515828,16.0813955 C5.681509,16.066347 5.68496048,16.0514367 5.68578884,16.0366643 C5.68634107,16.0220301 5.6845463,16.0083622 5.68026647,15.9956608 C5.67584858,15.9828213 5.66922174,15.9716385 5.66052402,15.9621124 C5.65155018,15.9521721 5.64050545,15.944717 5.62780401,15.9394707 C5.61510257,15.9342245 5.60198695,15.9317394 5.58859522,15.9325678 C5.5754796,15.93312 5.56291622,15.9362953 5.55076702,15.9422319 C5.53875588,15.9481684 5.52771115,15.95659 5.51777089,15.9674967 C5.50769258,15.9782653 5.49968515,15.9913809 5.49333443,16.0062913 M5.50921123,16.2237344 C5.48090911,16.2118613 5.45757712,16.1965368 5.4390772,16.1772085 C5.42071533,16.1582944 5.40704748,16.1371714 5.39834976,16.1139774 C5.38951397,16.0907835 5.3853722,16.0666232 5.3860625,16.0416345 C5.38675279,16.0163696 5.39199904,15.9919332 5.40207735,15.968187 C5.41215567,15.9438886 5.42596158,15.9226275 5.44335703,15.9044037 C5.46075248,15.886456 5.48063299,15.8720979 5.50341274,15.8621576 C5.52591638,15.8522173 5.5504909,15.8471092 5.57699825,15.8465545 C5.60378172,15.8464189 5.63097937,15.8520793 5.65928149,15.8639524 C5.68758361,15.8756874 5.71077754,15.891012 5.7291394,15.9102022 C5.7473632,15.9291163 5.760893,15.9503774 5.76972878,15.9735713 C5.7784265,15.9964891 5.78256828,16.0206495 5.78187798,16.0457762 C5.78118769,16.070903 5.77580338,16.0956156 5.76572507,16.1197759 C5.75564675,16.1436601 5.7419789,16.1646451 5.72458345,16.1827309 C5.707188,16.2009547 5.68730749,16.2151748 5.66494191,16.2252531 C5.64257633,16.2353314 5.61800181,16.2404396 5.59149446,16.2408538 C5.56498711,16.2412679 5.53737529,16.2353314 5.50921123,16.2237344" id="Fill-37" fill="#231F20"></path>
            <path d="M6.301699,16.5041877 L6.21300334,16.4749192 L6.27494314,16.273629 C6.28377258,16.2450508 6.28551171,16.2224091 6.28016054,16.2061181 C6.27467559,16.1898271 6.26357191,16.1790585 6.24671572,16.1733981 C6.22905686,16.1674615 6.21032776,16.1689802 6.19052843,16.177954 C6.1707291,16.1866518 6.15414047,16.201286 6.14076254,16.2213046 L6.07641472,16.43005 L5.98745151,16.4009195 L6.04952508,16.1997674 C6.05848829,16.170913 6.06009365,16.1485474 6.0546087,16.1321184 C6.04925753,16.1158274 6.03815385,16.1047827 6.02129766,16.0993984 C6.00404013,16.0934618 5.9855786,16.0949805 5.96564548,16.1038163 C5.94571237,16.1120998 5.92912375,16.126596 5.91547826,16.1466146 L5.85099666,16.3560503 L5.76216722,16.3269198 L5.8726689,15.9682422 L5.95293645,15.9948876 L5.93246823,16.061018 C5.95240134,16.0421039 5.97554515,16.0298166 6.00163211,16.0247084 C6.02785284,16.0193241 6.05527759,16.021533 6.08404013,16.0309211 C6.11320401,16.0407233 6.13340468,16.0552195 6.1449097,16.075238 C6.15628094,16.0949805 6.16082943,16.1161035 6.15882274,16.1391594 C6.18049498,16.1191408 6.20417391,16.1061633 6.22985953,16.1002267 C6.25541137,16.0945663 6.282301,16.0959469 6.30999331,16.1050588 C6.33139799,16.1122379 6.34758528,16.1220401 6.35868896,16.1347415 C6.36992642,16.147443 6.37701672,16.1616631 6.38062876,16.1774018 C6.38397324,16.1930025 6.38450836,16.2098457 6.38223411,16.2275172 C6.37982609,16.2453269 6.37621405,16.2629984 6.3707291,16.2802558 L6.301699,16.5041877 Z" id="Fill-39" fill="#231F20"></path>
        </g>
    </g>
</svg>